<?xml version="1.0" encoding="UTF-8" standalone="no"?>
<!-- Created with Inkscape (http://www.inkscape.org/) -->

<svg
   width="820"
   height="820"
   viewBox="0 0 820 820"
   version="1.1"
   id="svg1"
   inkscape:version="1.4.4 (dcaf3e7d9e, 2026-05-05)"
   sodipodi:docname="room.svg"
   xmlns:inkscape="http://www.inkscape.org/namespaces/inkscape"
   xmlns:sodipodi="http://sodipodi.sourceforge.net/DTD/sodipodi-0.dtd"
   xmlns="http://www.w3.org/2000/svg"
   xmlns:svg="http://www.w3.org/2000/svg">
  <sodipodi:namedview
     id="namedview1"
     pagecolor="#ffffff"
     bordercolor="#999999"
     borderopacity="1"
     inkscape:showpageshadow="2"
     inkscape:pageopacity="0"
     inkscape:pagecheckerboard="0"
     inkscape:deskcolor="#d1d1d1"
     inkscape:document-units="px"
     inkscape:zoom="0.56602211"
     inkscape:cx="329.49243"
     inkscape:cy="377.19375"
     inkscape:window-width="1272"
     inkscape:window-height="760"
     inkscape:window-x="0"
     inkscape:window-y="0"
     inkscape:window-maximized="0"
     inkscape:current-layer="layer1" />
  <defs
     id="defs1" />
  <g
     inkscape:label="Layer 1"
     inkscape:groupmode="layer"
     id="layer1">
    <rect
       style="fill:#666666;stroke-width:3;stroke-linecap:round"
       id="rect1"
       width="820"
       height="820"
       x="0"
       y="0" />
    <path
       style="fill:#333333;stroke:none;stroke-width:3;stroke-linecap:round"
       id="path3"
       d="m -9.7563674,712.46889 c 0.9385233,-0.52697 1.9148385,-0.99167 2.8155699,-1.58092 4.1277725,-2.70032 7.81063588,-6.04802 11.9091028,-8.79826 4.1532899,-2.78703 6.9628017,-4.24945 11.3698717,-6.73243 12.373449,-6.40814 25.244698,-11.77777 37.889948,-17.60803 10.411056,-4.80016 15.446077,-7.40881 25.895812,-12.60902 31.094283,-15.9282 62.332873,-31.51903 94.299333,-45.62563 32.0726,-13.86925 65.40563,-24.24611 99.05041,-33.48175 26.36237,-6.25408 52.09577,-14.63377 77.16072,-24.87367 15.3286,-6.46766 29.99199,-14.41382 44.3818,-22.73616 1.90201,-1.69387 11.57903,-5.24377 12.52868,-7.54184 0.1404,-0.33975 -0.0228,-0.73488 -0.0342,-1.10232 0.11595,-0.18015 0.23191,-0.3603 0.34786,-0.54045 0,0 -2.81712,-1.94093 -2.81712,-1.94093 v 0 c -0.4506,-0.0353 -0.90119,-0.0706 -1.35178,-0.10595 -0.74399,-0.11562 -1.47909,-0.33976 -2.23198,-0.34685 -4.8944,-0.0461 -9.95319,4.64943 -14.03493,6.66125 -14.02884,8.58769 -28.62375,16.27456 -43.58043,23.11519 -24.78783,10.42525 -50.3446,18.66378 -76.41887,25.26123 -33.50854,9.38295 -66.70155,19.8682 -98.60397,33.90627 -31.99949,14.10467 -63.39759,29.46814 -94.437268,45.57583 -10.69666,5.44162 -15.002921,7.74654 -25.646458,12.73871 -12.60049,5.91006 -25.573548,11.06917 -37.79406,17.76408 -5.2097294,3.35883 -10.24644882,6.89894 -15.3014875,10.48448 -1.7722778,1.25708 -5.6482235,3.91196 -7.2957665,5.60139 -0.652969,0.66957 -1.087635,1.52178 -1.631452,2.28267 z" />
    <path
       style="fill:#333333;stroke:none;stroke-width:3;stroke-linecap:round"
       id="path4"
       d="m 401.73109,536.1546 c 10.63187,1.18892 20.49766,6.07122 30.02085,10.64559 2.63581,1.41603 5.32904,2.73002 7.90743,4.24809 0.71299,0.41978 1.26603,1.06835 1.93927,1.5493 3.14104,2.2439 6.3883,4.33833 9.50002,6.62272 10.78516,7.91766 20.9467,16.61955 31.11217,25.30188 23.53014,21.0229 48.67121,40.04821 74.33839,58.35338 31.09221,22.12434 66.01216,37.91997 100.37849,54.16099 31.70952,14.52248 64.38184,26.74702 97.36836,38.00644 26.30766,8.94079 53.35532,15.46361 80.73667,20.06905 6.34456,0.80647 12.60267,1.73624 18.99394,2.07221 2.29559,0.12068 4.60249,-0.10124 6.89608,0.0529 2.14599,0.14425 4.26499,0.56046 6.39749,0.84069 0,0 -3.25545,-2.43562 -3.25545,-2.43562 v 0 c -12.06887,-1.8134 -23.97971,-4.58347 -36.13549,-5.87313 -27.06546,-4.49595 -53.84276,-10.62756 -79.82741,-19.54306 -32.76874,-11.00347 -65.18598,-23.09836 -96.62141,-37.52702 -12.69779,-6.00122 -20.18701,-9.49725 -32.81328,-15.63841 -5.42937,-2.64074 -10.83735,-5.32524 -16.25058,-7.99888 -3.33159,-1.6455 -6.73416,-3.15666 -9.98384,-4.95852 -13.88099,-7.69661 -16.81194,-10.06826 -29.90182,-18.86541 -25.48978,-18.18119 -50.37593,-37.17416 -73.74271,-58.05054 -19.70452,-16.91621 -39.64019,-33.85817 -63.18875,-45.29088 -9.63321,-4.58955 -19.48975,-9.1881 -30.19535,-10.53222 z" />
    <path
       style="fill:#333333;stroke:none;stroke-width:3;stroke-linecap:round"
       id="path5"
       d="m 401.17003,530.18838 c -0.94814,-26.36363 -2.98814,-52.68493 -5.0045,-78.98492 -3.12451,-49.4494 -9.825,-98.57163 -13.8093,-147.94678 -0.90952,-11.27123 -1.57741,-22.56065 -2.36612,-33.84098 -0.39208,-11.33923 -1.021,-22.67274 -1.17624,-34.01768 -0.46772,-34.18017 2.16874,-67.44104 5.04869,-101.45618 0.96763,-11.42867 2.19833,-22.83509 3.06843,-34.271595 0.81898,-10.764566 1.33223,-21.550211 1.99834,-32.325316 0.82708,-9.225002 1.65415,-18.450005 2.48123,-27.675007 0,0 -1.82026,-0.946848 -1.82026,-0.946848 v 0 c -0.73353,9.273295 -1.46707,18.546591 -2.20061,27.819887 -5.28463,44.438219 -2.474,19.10751 -7.13608,65.518799 -1.17562,11.70342 -2.61228,23.38301 -3.55227,35.10772 -2.67295,33.34051 -2.74253,66.79219 -0.84113,100.1788 0.81998,11.29895 1.56121,22.60389 2.45993,33.89684 3.90195,49.03018 9.36112,97.93838 12.0633,147.06025 1.45131,26.04164 2.49629,52.09404 3.46848,78.15425 z" />
    <path
       style="fill:#333333;stroke:none;stroke-width:3;stroke-linecap:round"
       id="path7"
       d="m 402.56084,477.23469 c 10.6889,3.57821 21.12775,7.78572 31.3784,12.4607 9.81779,4.91452 20.13638,9.19589 29.41288,15.1386 1.52097,0.97437 2.76727,2.3224 4.14027,3.49612 14.02806,11.99193 7.84913,6.43391 21.73265,19.89209 20.18754,20.00773 41.10335,39.67687 64.7489,55.60499 3.86929,2.60643 7.90666,4.95421 11.85998,7.43132 24.29354,14.80547 51.19651,24.02922 78.30661,32.09655 26.47623,6.54525 52.91846,13.29063 79.61454,18.8892 14.63673,3.03471 29.47216,5.39425 43.85771,9.53978 8.43408,2.43047 15.08159,4.91044 23.43385,7.8418 20.88966,7.38414 40.86701,17.00578 60.9639,26.26181 0,0 -0.96428,-0.76808 -0.96428,-0.76808 v 0 c -21.79802,-10.62181 -43.13236,-22.33625 -66.13398,-30.27483 -7.6411,-2.67814 -15.85757,-5.69359 -23.67216,-7.93894 -14.28504,-4.10449 -29.05523,-6.27465 -43.58374,-9.28597 -26.65837,-5.46729 -53.10598,-11.92217 -79.42671,-18.82775 -22.50219,-6.77915 -44.74306,-14.48263 -65.82322,-24.98568 -4.0339,-2.49296 -8.15318,-4.8528 -12.10172,-7.47887 -23.73239,-15.78374 -44.61721,-35.37656 -64.70216,-55.47422 -4.91886,-4.7954 -15.64304,-15.62503 -21.45078,-19.90661 -14.01852,-10.33475 -29.7177,-18.1193 -45.45358,-25.41247 -9.81652,-4.46231 -19.77037,-8.51043 -30.1677,-11.43069 z" />
    <path
       style="fill:#333333;stroke:none;stroke-width:3;stroke-linecap:round"
       id="path8"
       d="m 404.54042,406.35014 c 11.88636,0.84836 23.65117,3.19072 35.25703,5.81971 14.61334,4.12344 28.49262,10.79541 41.33245,18.86818 1.78123,1.11991 3.3547,2.54138 5.06678,3.76438 3.72142,2.65834 7.4883,5.25248 11.23244,7.87872 23.94579,18.33056 48.81921,35.32818 74.03668,51.84264 30.72626,19.45029 62.08078,37.92895 94.2979,54.80096 26.21716,13.84589 54.52891,22.66925 82.9446,30.68554 22.23292,5.96584 44.53526,11.78547 67.11335,16.30336 3.24093,0.60811 6.48276,1.21148 9.7228,1.82432 11.12572,2.1044 7.21071,1.29583 18.00633,3.70883 7.07441,1.58124 13.95054,3.20711 21.1561,4.0034 1.58772,0.069 3.17543,0.13796 4.76314,0.20694 0,0 -3.4253,-2.57018 -3.4253,-2.57018 v 0 c -2.16972,-0.51458 -4.33943,-1.02916 -6.50915,-1.54374 -16.82236,-4.22898 -33.74212,-8.0167 -50.83207,-11.01853 -22.35181,-4.44677 -44.4322,-10.0906 -66.46657,-15.8927 -28.15169,-7.88814 -56.17314,-16.70998 -82.18567,-30.29418 -4.12337,-2.15851 -17.68718,-9.1802 -23.16689,-12.26899 -19.93198,-11.23516 -39.4637,-23.17054 -58.81752,-35.36846 -25.18501,-16.49389 -50.08957,-33.38949 -73.94355,-51.78142 -21.59178,-15.16596 -44.11681,-30.13838 -69.79167,-37.30906 -11.42283,-2.57966 -22.93854,-4.79165 -34.66994,-5.20433 z" />
    <path
       style="fill:#333333;stroke:none;stroke-width:3;stroke-linecap:round"
       id="path9"
       d="m 382.75689,327.96252 c 12.40021,3.72546 25.05332,6.35755 37.84507,8.28338 21.66072,2.93226 43.54316,3.69226 65.20117,6.67686 5.16761,0.71212 10.30272,1.64291 15.45408,2.46436 20.45012,3.55463 39.92098,10.95391 57.70174,21.63641 2.1843,1.3123 4.1522,2.95544 6.20394,4.4666 4.10897,3.02635 8.18511,6.09703 12.27767,9.14555 16.25695,12.3444 30.75749,26.78215 46.77888,39.41153 11.18489,8.81685 14.12733,10.53293 25.89236,18.57234 28.83567,18.03123 57.05633,37.0005 85.52122,55.60202 26.70366,17.12872 54.59442,32.59472 83.82617,44.99836 5.2576,2.23091 10.60997,4.23153 15.91495,6.3473 18.85975,7.15191 38.27435,12.65836 58.19422,15.88388 10.98077,1.77806 14.68286,1.91778 25.55196,2.88215 3.493,0.0351 6.986,0.0702 10.47899,0.1053 0,0 -4.48065,-3.30595 -4.48065,-3.30595 v 0 c -4.14658,-0.52712 -8.29317,-1.05425 -12.43975,-1.58138 -10.39539,-1.21951 -15.8135,-1.72823 -26.23319,-3.4799 -19.71752,-3.31474 -39.01005,-8.59279 -57.69887,-15.71388 -5.24877,-2.08675 -10.54404,-4.06011 -15.7463,-6.26025 -24.33998,-10.29384 -47.89402,-22.59109 -70.03904,-37.01602 -28.39619,-18.54963 -56.4804,-37.5712 -85.28528,-55.49299 -11.85382,-8.0564 -14.70595,-9.70535 -25.9972,-18.53519 -16.10604,-12.59505 -30.66372,-27.0177 -46.87063,-39.48963 -4.12895,-3.0817 -8.10826,-6.37478 -12.38687,-9.24509 -24.22162,-16.24909 -48.29481,-28.68045 -77.31069,-33.54468 -5.12897,-0.79258 -10.24538,-1.67126 -15.38692,-2.37775 -21.82865,-2.99944 -43.85977,-4.03929 -65.68028,-7.06993 -12.73238,-2.01081 -25.36414,-4.43919 -37.68771,-8.29183 z" />
    <path
       style="fill:#333333;stroke:none;stroke-width:3;stroke-linecap:round"
       id="path10"
       d="m 378.27644,273.59216 c 13.56322,-0.67607 27.05878,-2.20713 40.58085,-3.41717 15.5873,-1.4105 31.3386,-2.1618 46.92486,-0.25576 9.38344,1.14749 12.81102,2.2132 21.90685,4.35804 21.37932,5.65231 41.06455,15.7123 60.39496,26.1923 20.65502,11.35326 40.83734,23.52157 61.21039,35.36407 19.00676,11.48952 38.79234,21.5924 58.1951,32.37298 6.72465,3.73636 17.45979,10.35466 23.07547,13.75008 28.30883,17.98399 56.6271,36.17499 86.93703,50.68541 5.60287,2.68228 11.34944,5.05345 17.02415,7.58018 21.55074,8.86226 43.69325,16.60398 66.54862,21.35608 11.65745,2.42382 15.17748,2.55003 26.66679,3.81279 12.93018,-0.74198 6.50997,-0.58919 19.26016,-0.47825 0,0 -1.54639,-1.12883 -1.54639,-1.12883 v 0 c -14.29457,-0.51028 -6.59511,0.14623 -23.05984,-2.37869 -10.77471,-1.48066 -16.47724,-2.0735 -27.27726,-4.37374 -22.72334,-4.8397 -44.78634,-12.38183 -66.2204,-21.27048 -14.87186,-6.62744 -29.68472,-13.43138 -43.85576,-21.49147 -12.55867,-7.14301 -20.24297,-12.23378 -32.40114,-19.95455 -5.13678,-3.262 -10.27451,-6.5225 -15.41176,-9.78375 -15.69827,-9.55255 -18.0574,-11.13894 -35.57585,-21.02501 -15.02209,-8.47732 -30.47663,-16.19068 -45.33028,-24.97234 -24.62701,-14.31451 -49.0149,-29.0474 -74.0137,-42.7142 -19.27311,-10.39897 -38.91199,-20.36175 -60.25089,-25.83258 -9.14751,-2.08017 -12.38366,-3.07042 -21.81817,-4.16146 -15.6547,-1.81038 -31.44012,-1.01109 -47.09583,0.27706 -13.27463,1.22311 -26.56062,2.47936 -39.79754,4.03067 z" />
    <path
       style="fill:#333333;stroke:none;stroke-width:3;stroke-linecap:round"
       id="path16"
       d="m 371.25874,237.71564 c 31.05266,-4.51406 61.97136,-9.93896 93.01829,-14.5556 32.82059,-4.29079 65.71493,-10.57221 98.93869,-10.68501 15.78527,-0.0536 18.87149,0.87152 33.89764,2.93871 13.39999,2.31804 25.99595,7.17777 37.81449,13.83346 2.02313,1.13934 3.85378,2.59136 5.75736,3.92085 12.23673,8.54634 10.0534,7.0705 22.10571,16.12071 18.90233,13.83226 39.32617,25.64687 61.08771,34.38187 15.47895,6.2132 20.92366,7.42965 37.46046,12.43351 39.64223,10.67572 79.28209,21.34881 118.3655,33.94372 4.51756,1.39357 9.03512,2.78713 13.55269,4.18069 3.53343,0.942 7.09808,1.77386 10.60029,2.82601 3.2901,0.98842 6.51068,2.195 9.76602,3.2925 0,0 -2.29355,-1.78054 -2.29355,-1.78054 v 0 c -12.56871,-4.03885 -24.78321,-8.98157 -37.37263,-12.97236 -38.83618,-12.32425 -78.24084,-22.60708 -117.54723,-33.30113 -6.93549,-2.17257 -13.92661,-4.17497 -20.80649,-6.51773 -12.93296,-4.40399 -20.50008,-7.68168 -32.80333,-13.30465 -2.96406,-1.35468 -5.95482,-2.67259 -8.79331,-4.27378 -10.34461,-5.83541 -15.81824,-9.93763 -25.51533,-16.64041 -22.91519,-17.228 -46.50582,-34.76366 -75.58063,-39.27973 -14.88285,-1.82412 -17.64028,-2.6597 -33.25657,-2.36142 -32.82273,0.62694 -65.25182,7.02133 -97.63753,11.65406 -9.16238,1.41305 -18.31145,2.91524 -27.48714,4.23914 -24.8851,3.59054 -21.18691,2.51781 -43.27541,6.00449 -3.90573,0.61652 -7.77937,1.42447 -11.6822,2.05916 -5.18049,0.84247 -6.88913,0.96866 -11.65076,1.46928 z" />
    <path
       style="fill:#333333;stroke:none;stroke-width:3;stroke-linecap:round"
       id="path17"
       d="m 375.94971,147.76246 c 3.41068,-0.15148 4.53964,-0.18883 8.53257,-0.45719 9.72016,-0.65328 12.43729,-1.07389 23.18694,-1.30382 9.90667,-0.21191 29.18585,0.0244 38.78324,0.1029 42.26277,0.93526 84.49813,-0.0867 126.70544,-2.20454 27.42981,-1.04686 54.6526,-5.22713 82.07347,-6.33206 16.73728,-0.67442 19.37966,-0.18048 35.7424,0.64943 21.27417,2.04705 42.31758,5.8975 63.54107,8.35033 13.94618,1.61178 19.16954,1.86512 33.24472,2.9303 21.39705,1.22556 42.87196,2.12802 64.31117,1.64495 7.32181,-0.16497 19.61965,-0.89406 27.01339,-1.29834 13.0396,-0.41454 26.01923,-1.42909 39.00638,-2.5945 0,0 -4.8069,-3.45792 -4.8069,-3.45792 v 0 c -13.47552,0.11966 -26.9217,0.46695 -40.35757,1.62931 -30.06139,1.63231 -60.20136,2.78325 -90.263,0.3138 -15.25358,-1.18229 -18.17388,-1.26931 -33.26338,-2.98456 -21.07123,-2.39521 -41.96374,-6.19927 -63.10949,-7.96884 -15.40079,-0.61846 -19.86144,-1.08621 -35.61893,-0.48157 -27.32906,1.04864 -54.42186,5.4554 -81.75458,6.55021 -41.99195,2.05686 -84.0086,3.44203 -126.05881,2.63575 -20.97804,-0.33215 -42.13452,-1.11929 -63.08921,0.46062 -3.20811,0.24188 -4.81685,0.6015 -7.62847,1.14293 z" />
    <path
       style="fill:#333333;stroke:none;stroke-width:3;stroke-linecap:round"
       id="path18"
       d="m 387.26461,102.14525 c 1.46179,-0.0847 2.93352,-0.064 4.38538,-0.25403 4.06531,-0.53218 12.72893,-2.438295 16.21053,-3.214146 13.50992,-3.010598 26.92216,-6.437478 40.35307,-9.777094 22.37368,-5.428418 44.23437,-12.768389 66.63638,-18.082809 15.14803,-3.593561 15.84443,-3.422446 30.91391,-5.822629 28.3635,-2.815931 56.89515,-3.984664 85.39057,-4.284064 17.03602,0.01667 34.08541,1.37481 50.78661,4.823838 10.20099,2.106645 12.98596,3.156392 22.98818,6.108573 17.59001,5.766064 35.62101,9.96661 54.25359,8.857818 13.31507,-0.792355 17.76028,-2.379449 30.84518,-5.349136 30.3166,-8.471165 58.82371,-22.02392 86.98334,-35.855171 8.97841,-4.537051 17.98634,-9.009884 26.82817,-13.809877 0.009,-0.0049 9.12924,-4.97629 9.7929,-5.551103 0.77009,-0.666991 1.09672,-1.717225 1.64508,-2.575838 0.73798,-0.342769 1.47597,-0.685539 2.21395,-1.028308 0,0 -2.86446,-1.882755 -2.86446,-1.882755 v 0 c -0.68582,0.37765 -1.37165,0.7553 -2.05747,1.132949 -1.53873,0.20953 -3.12702,0.188168 -4.61618,0.62859 -1.32636,0.392273 -10.04555,4.787951 -10.56502,5.054346 -8.91298,4.57076 -17.69816,9.392378 -26.63249,13.922588 -27.58064,14.552509 -55.88793,28.073 -86.11171,36.232376 -12.9268,2.890916 -17.5844,4.500972 -30.72811,5.253003 -18.55332,1.061547 -36.51738,-3.082674 -54.0101,-8.901942 -9.39319,-2.715395 -13.32477,-4.072965 -22.92103,-5.966652 -16.56872,-3.269604 -33.51998,-4.343347 -50.37755,-4.389301 -28.30521,0.32888 -56.6154,1.908027 -84.77255,4.821167 -4.99426,0.830571 -10.01318,1.524445 -14.98278,2.491714 -27.97088,5.44418 -55.03059,14.596875 -82.6686,21.389579 -20.18843,4.846433 -40.33016,10.082691 -60.88957,13.143376 z" />
    <path
       style="fill:#333333;stroke:none;stroke-width:3;stroke-linecap:round"
       id="path19"
       d="m 397.88364,36.943932 c 10.87955,-0.823238 21.05387,-5.69485 31.0222,-9.745097 17.38598,-7.06413 11.5428,-4.649024 29.53255,-12.604274 31.03219,-13.89296847 61.66963,-28.649828 92.92559,-42.039127 21.62629,-9.471373 45.15068,-12.338646 68.31978,-15.500568 28.36129,-3.941526 56.86301,-6.469217 85.41175,-8.535179 16.3304,-1.846384 32.77034,-2.409691 49.19051,-2.247186 0,0 -0.33024,-0.240425 -0.33024,-0.240425 v 0 c -17.75332,-0.172068 -35.49393,-1.1065 -53.25434,-0.663625 -28.77332,1.481787 -57.41294,4.509305 -85.98786,8.176058 -23.13394,3.074576 -46.38041,6.726959 -68.02267,15.901051 -30.89113,13.719922 -60.92736,29.2638433 -91.95474,42.685292 -19.80098,8.526047 -39.76052,18.412208 -61.28344,21.593834 z" />
    <path
       style="fill:#333333;stroke:none;stroke-width:3;stroke-linecap:round"
       id="path20"
       d="M 386.29676,35.436171 C 371.07997,26.721446 354.75791,20.025278 338.53612,13.423161 318.55483,5.4649851 297.4058,1.4189673 276.49592,-3.2074042 252.55264,-8.2789357 229.44527,-16.246057 206.50882,-24.647295 c -24.30529,-9.351115 -49.40467,-16.480842 -75.00376,-21.268143 -16.8867,-3.157991 -26.95502,-4.223702 -44.048057,-6.449137 -22.60601,-2.589219 -45.333089,-3.825492 -68.028435,-5.316501 0,0 0.243443,0.179324 0.243443,0.179324 v 0 c 7.420059,0.487766 14.859842,0.735128 22.260177,1.463299 11.534893,1.135001 38.029444,5.049641 49.572085,6.699749 18.081637,2.615951 27.111227,3.688314 44.951137,7.182589 25.86356,5.065855 51.25784,12.248786 75.76711,21.975232 23.09173,8.486465 46.29757,16.8352882 70.48323,21.6875527 20.46083,4.1906023 41.20172,7.6261598 60.61912,15.6842513 4.28296,1.709461 15.18931,6.029071 19.59532,7.914005 6.79531,2.907095 13.35262,6.283821 20.0682,9.346148 0.54062,0.246524 -1.02211,-0.606176 -1.53317,-0.909263 z" />
    <path
       style="fill:#333333;stroke:none;stroke-width:3;stroke-linecap:round"
       id="path21"
       d="m 373.05739,79.267353 c -22.66754,1.298981 -45.12022,-3.525324 -67.20632,-7.986655 -24.72718,-6.09932 -49.67172,-11.241203 -74.4849,-16.953031 -9.39921,-2.172742 -18.38396,-5.550601 -27.04095,-9.76771 -7.32334,-3.567446 -15.85636,-10.221615 -22.63851,-14.869113 -3.34245,-2.335458 -6.68379,-4.672494 -10.02734,-7.006375 -7.10863,-4.962007 -12.70716,-8.998532 -20.08813,-13.5729613 -12.4843,-7.7372714 -25.51545,-14.4906538 -38.74177,-20.8450327 -20.09774,-8.979392 -41.808224,-11.54969 -63.605416,-9.303256 -4.811131,0.495838 -9.57126,1.400834 -14.35689,2.101252 -17.802764,3.614014 -34.72465824,10.1908529 -51.626397,16.6467623 0,0 1.139045,0.77689 1.139045,0.77689 v 0 C 3.0916938,-6.0206784 21.666403,-11.091323 40.528956,-14.94332 c 10.923459,-1.517636 17.101953,-2.748223 28.074092,-2.848243 17.228492,-0.157053 34.039742,3.358724 49.738942,10.4545307 5.3409,2.5840822 10.83725,4.8641132 16.04093,7.71445657 14.25335,7.80734923 27.37954,17.38781473 40.65981,26.70301273 19.26297,13.276182 38.81507,27.040894 62.19444,31.714564 24.62514,5.411168 49.34293,10.381391 73.82718,16.433796 22.38805,4.483496 45.26867,9.72816 68.22854,8.46433 z" />
    <path
       style="fill:#333333;stroke:none;stroke-width:3;stroke-linecap:round"
       id="path22"
       d="m 375.25323,121.83838 c -15.88926,4.34852 -32.49122,4.75977 -48.85162,5.2207 -28.77429,0.63021 -57.29784,-3.57043 -85.76269,-7.15688 -34.66943,-4.85981 -69.52359,-7.75769 -104.50131,-8.89889 -28.02622,-0.96296 -56.04511,2.51239 -84.06401,1.16773 -4.587643,-0.22017 -9.154377,-0.75971 -13.731565,-1.13956 C 23.950373,109.16454 10.482431,103.98187 -1.7191176,96.196237 -2.1244442,95.937604 -2.2704577,95.384329 -2.6608119,95.103608 -4.9927277,93.426624 -7.4523423,91.93475 -9.8481075,90.350322 -23.118629,81.515835 -37.182119,74.084906 -52.765153,70.372777 c -9.190132,-2.189236 -14.012772,-2.417264 -23.389108,-3.441025 -10.279014,-0.756586 -20.498818,0.395787 -30.694969,1.494489 0,0 1.7889,1.287049 1.7889,1.287049 v 0 c 11.538031,0.07423 23.050538,0.458481 34.555393,1.418673 3.91651,0.437729 7.856188,0.702819 11.749529,1.313187 7.89296,1.237396 14.98215,2.966305 22.498773,5.638752 3.319795,1.180315 6.508748,2.700683 9.772119,4.029067 0.590394,0.240325 1.235766,0.35935 1.788531,0.676797 2.608784,1.498195 5.113746,3.170326 7.670619,4.755489 9.1061792,6.018023 9.8275471,6.599511 21.1642045,13.391325 5.8343758,3.49539 10.9812315,6.3631 17.3825455,8.77786 9.821361,3.70491 11.808511,3.53141 22.3506,5.39926 4.508622,0.31095 9.009077,0.78127 13.525867,0.93286 27.883142,0.93575 55.758189,-2.68465 83.650199,-1.45071 35.18768,1.18274 70.23804,4.30908 105.08511,9.40788 28.58903,3.84121 57.24875,7.92819 86.18123,7.32918 16.62394,-0.34594 33.38514,-0.82171 49.58407,-4.98581 z" />
    <path
       style="fill:#333333;stroke:none;stroke-width:3;stroke-linecap:round"
       id="path23"
       d="m 366.12995,176.12084 c -13.40053,-0.0814 -26.7954,-0.011 -40.17977,0.66883 -22.70528,2.10244 -45.48029,4.05263 -68.04701,7.4011 -12.27042,1.8207 -28.11027,4.8747 -40.27525,7.13126 -27.84572,4.69518 -56.15603,6.80508 -84.37101,5.05906 -15.20245,-0.94076 -20.23359,-2.00388 -35.127616,-4.21238 -22.463376,-3.74373 -44.356431,-10.27953 -66.806785,-14.08469 -16.27334,-2.7582 -18.989957,-2.57718 -35.5040429,-3.82662 -25.5964881,-0.56092 -51.0888651,3.27208 -75.7466361,10.01941 -2.226007,0.60912 -33.13552,10.31467 -35.84367,11.16317 0,0 3.55264,2.42421 3.55264,2.42421 v 0 c 36.916733,-10.89442 74.713184,-20.78572 113.539942,-19.54482 17.356119,1.33351 18.359441,1.0118 35.476591,3.90778 22.293861,3.77182 44.066045,10.08997 66.385397,13.72822 15.69629,2.33668 19.06143,3.2092 35.05874,4.06962 28.10992,1.51189 56.22708,-1.0735 83.97842,-5.49295 14.1174,-2.58684 26.2179,-4.94399 40.41473,-6.99401 22.89011,-3.30532 45.98715,-5.25756 69.06533,-6.60586 13.60504,-0.39887 27.201,-0.15734 40.80932,-0.17649 z" />
    <path
       style="fill:#333333;stroke:none;stroke-width:3;stroke-linecap:round"
       id="path24"
       d="m 377.97576,213.82656 c -4.50434,0.99394 -8.79745,2.92073 -13.10427,4.57296 -7.38765,3.4395 -14.99471,6.03717 -22.95344,7.76176 -13.05109,2.29629 -26.37157,2.41741 -39.57765,2.85937 -24.23121,0.81095 -8.21613,0.17901 -32.78613,1.24093 -17.80886,1.10786 -35.52448,3.26504 -53.27589,4.9986 -13.72373,1.34023 -24.26389,2.06365 -37.99935,3.6302 -6.39186,0.729 -12.76187,1.63837 -19.14281,2.45755 -26.57144,3.88347 -51.82342,13.19999 -75.853592,24.94726 -12.639111,6.17869 -24.563922,13.00551 -36.855346,19.82814 -22.156788,12.59039 -43.6903523,26.57938 -67.436157,36.10263 -12.488402,5.00846 -15.595649,5.45275 -28.162089,8.79835 -20.719034,4.79268 -41.975348,2.7269 -62.998256,3.47184 0,0 1.45068,1.07111 1.45068,1.07111 v 0 c 9.1149,1.46544 12.151341,2.18685 21.376578,2.73934 15.175134,0.90881 30.371336,-0.51671 45.194043,-3.83795 12.902427,-3.77988 14.619933,-3.89554 27.476299,-9.36588 23.5721738,-10.02988 45.39704,-23.50639 67.69653,-35.98339 13.458594,-7.50949 22.936025,-13.04291 36.819357,-19.79951 24.089373,-11.72358 49.389183,-20.90883 76.034213,-24.61544 36.7969,-4.44068 73.72989,-7.9723 110.67963,-10.83708 17.05963,-0.59423 16.23263,-0.63155 33.15833,-0.96129 11.53493,-0.22472 23.20686,-0.009 34.69713,-1.30527 2.00134,-0.22581 3.9756,-0.64813 5.9634,-0.9722 7.80844,-2.00544 15.36903,-4.65076 22.66694,-8.10188 4.09415,-1.7958 8.11706,-3.87686 12.51076,-4.85204 z" />
    <path
       style="fill:#333333;stroke:none;stroke-width:3;stroke-linecap:round"
       id="path25"
       d="m 369.0998,277.87379 c -13.45012,0.15713 -26.89707,0.29512 -40.34007,0.77137 -16.57996,0.66225 -33.01203,3.43279 -48.95431,8.00991 -8.31935,2.38854 -15.60431,5.06231 -23.76101,7.91355 -22.07075,8.52911 -44.86912,14.88594 -67.41221,21.99645 -27.58847,9.05506 -55.6017,16.83633 -82.89689,26.77942 -6.83813,2.491 -13.590617,5.21109 -20.385924,7.81663 -45.712036,18.11782 -89.4493839,40.68826 -133.586988,62.24085 -38.921363,18.54659 -19.315672,10.01988 -58.790208,25.6418 0,0 0.46463,0.31152 0.46463,0.31152 v 0 c 40.026044,-15.84948 19.528281,-7.88778 61.507111,-23.84946 9.29738,-4.2323 18.643528,-8.35905 27.892141,-12.69688 7.981258,-3.74341 15.8459621,-7.73073 23.7935917,-11.54501 27.3596413,-13.13065 54.8830063,-26.02263 83.1369543,-37.13052 19.430572,-7.18814 21.075552,-8.0807 40.576002,-14.19702 21.38999,-6.70898 43.2299,-11.88179 64.44211,-19.17712 22.68882,-6.87092 45.5812,-13.14437 67.66529,-21.85945 9.58136,-3.38062 13.89908,-5.07983 23.75402,-7.8354 16.0963,-4.50074 32.67294,-7.10837 49.3939,-7.47141 13.95291,-0.0597 27.90215,0.15859 41.85366,0.34871 z" />
    <path
       style="fill:#333333;stroke:none;stroke-width:3;stroke-linecap:round"
       id="path26"
       d="m 374.27424,303.93952 c -11.08314,1.38704 -20.83439,7.42264 -30.42203,12.72533 -10.78629,6.18698 -21.88222,11.8781 -32.16008,18.91363 -4.85281,3.32191 -7.17401,5.2941 -11.72526,8.9114 -1.72478,1.62636 -3.52192,3.17925 -5.17435,4.87907 -5.07578,5.22136 -9.37099,11.17703 -14.00363,16.77727 -6.64747,8.03589 -5.73094,6.82422 -13.16285,14.98837 -3.178,3.21518 -6.15907,6.63773 -9.534,9.64554 -22.87582,20.3874 -51.01604,33.66176 -78.78847,45.88834 -27.8733,11.48272 -56.66388,20.46147 -85.689818,28.49711 -33.287783,8.31989 -67.230239,13.65346 -101.0944099,19.00188 -17.8940281,2.31647 -35.5773911,5.73554 -53.2127331,9.48646 0,0 0.246926,0.1745 0.246926,0.1745 v 0 c 19.543255,-1.25739 39.156518,-2.28116 58.4646944,-5.79703 33.8324496,-5.43714 67.7883756,-10.74542 101.0364906,-19.13455 28.77729,-8.09029 57.48189,-16.7789 84.71879,-29.25818 32.08085,-14.40047 64.47442,-29.71779 89.58279,-55.01803 2.65704,-2.75419 11.11478,-11.4297 13.87754,-14.62231 6.23865,-7.20932 10.9427,-15.69093 18.05968,-22.15615 1.87095,-1.45346 3.67496,-2.99746 5.61286,-4.36038 4.51209,-3.17337 9.15956,-5.658 13.86657,-8.52952 8.11522,-4.95071 16.06881,-10.17245 24.35424,-14.84348 9.77307,-5.25317 19.73146,-9.99555 30.63948,-12.34211 z" />
    <path
       style="fill:#333333;stroke:none;stroke-width:3;stroke-linecap:round"
       id="path27"
       d="m 378.13452,376.82588 c -19.624,5.29509 -38.22143,13.36257 -56.46136,22.20185 -22.70075,10.57136 -40.79535,25.96609 -59.00998,42.79824 -13.07192,11.59709 -24.41924,25.13854 -38.0716,36.095 -1.98957,1.5967 -4.09965,3.03714 -6.14947,4.55571 -15.84606,9.52594 -33.29817,15.93862 -50.44292,22.68205 -26.44825,11.06197 -54.22096,18.32086 -81.798913,25.91029 -22.789217,6.60224 -45.771393,12.42012 -68.790862,18.14431 -7.7291734,1.92199 -15.3939825,4.10838 -23.1601816,5.87483 -7.6435954,1.73856 -15.3698604,3.09127 -23.0547904,4.63691 0,0 1.657813,1.1556 1.657813,1.1556 v 0 c 7.736174,-1.51129 15.459267,-3.09114 23.2085235,-4.53385 8.3848745,-1.56104 16.8367175,-2.76525 25.1921135,-4.47707 23.311929,-4.77606 46.132894,-11.6929 69.058036,-17.98234 27.694741,-7.88906 55.486491,-15.525 82.538851,-25.4719 17.33747,-6.6438 34.86683,-13.16518 50.96514,-22.53059 2.10096,-1.50939 4.28836,-2.90521 6.30288,-4.52817 13.60904,-10.96385 24.76054,-24.70573 37.81024,-36.27975 7.38868,-6.97643 11.55175,-11.20096 19.52308,-17.54569 12.218,-9.72485 25.78171,-17.63936 39.49729,-25.02238 8.69136,-4.18624 12.47858,-6.2109 21.48077,-9.74071 11.75507,-4.60924 23.91696,-8.024 35.96422,-11.74925 z" />
    <path
       style="fill:#333333;stroke:none;stroke-width:3;stroke-linecap:round"
       id="path28"
       d="m 385.28042,469.18319 c 3.71888,-4.91453 2.61666,-5.70136 -5.98676,-8.59151 -0.96729,-0.32494 -1.96367,0.55581 -2.94551,0.83371 -15.95782,6.9308 -31.37334,15.04037 -47.07754,22.52564 -26.19987,11.66178 -52.30131,23.50311 -77.86205,36.51419 -23.26009,11.94402 -45.28474,26.15762 -68.41988,38.32514 -4.236,2.22784 -8.57682,4.25043 -12.86522,6.37565 -23.37185,11.51994 -48.47265,18.55597 -73.497489,25.40633 -26.040992,6.47235 -52.613021,10.30311 -78.762858,16.29773 -19.0959081,5.13137 -38.362759,9.98415 -57.036471,16.55019 -49.963691,17.56819 20.343936,-5.941 -27.426585,9.8644 0,0 1.394568,0.95326 1.394568,0.95326 v 0 c 37.199105,-9.75634 -10.259759,2.50693 30.911705,-7.47801 19.553722,-4.74219 38.7302595,-10.91834 58.290147,-15.63936 26.136392,-5.86224 52.628251,-9.94884 78.628633,-16.42934 24.99847,-6.81022 50.11096,-13.76775 73.23986,-25.74945 27.54759,-14.06192 53.88086,-30.26831 81.19829,-44.75933 13.54647,-6.79311 27.11643,-13.54982 40.88426,-19.88796 13.75512,-6.3323 11.86591,-5.19235 25.42834,-11.15853 3.94058,-1.73349 7.85249,-3.53144 11.77873,-5.29716 15.89857,-7.56012 31.65092,-15.59275 48.22957,-21.57439 0.87552,-0.21346 3.13171,0.10588 2.62656,-0.64039 -1.35889,-2.00749 -3.87796,-2.91764 -5.91967,-4.22455 -0.15636,-0.10009 0.19964,0.35451 0.15544,0.53482 -0.29543,1.20519 -1.48211,2.21445 -1.46051,3.55109 z" />
    <path
       style="fill:#333333;stroke:none;stroke-width:3;stroke-linecap:round"
       id="path29"
       d="m 102.81838,647.38232 c 16.77615,9.62598 17.86964,10.21291 31.6173,18.15976 2.80966,1.45962 5.60093,2.9552 8.42898,4.37886 8.6951,4.37718 14.92097,7.11539 23.61148,11.87979 12.80089,7.01784 24.69909,15.78555 36.73025,24.00757 14.70225,9.91926 29.18886,20.18882 41.10843,33.44754 7.32793,8.15122 9.17493,11.34873 15.59664,20.4305 15.79056,22.44654 31.33632,45.10095 48.09841,66.84443 4.44692,5.76847 8.88296,11.55453 13.63201,17.07693 4.73796,5.50951 9.87331,10.66442 14.80997,15.99663 3.70654,4.16685 7.41308,8.3337 11.11962,12.50054 0,0 0.36359,0.1534 0.36359,0.1534 v 0 c -3.54267,-4.0967 -7.08535,-8.1934 -10.62803,-12.2901 -18.39912,-25.959 -0.80381,-1.43918 -22.37655,-30.44883 -16.16148,-21.73292 -31.67887,-43.93427 -46.92045,-66.31898 -6.82213,-9.52682 -8.3289,-12.23024 -16.07993,-20.78032 -12.27592,-13.54143 -27.12767,-24.00317 -42.26798,-34.07888 -5.34725,-3.62014 -23.13509,-15.73616 -28.4126,-19.00375 -17.29581,-10.70877 -35.34637,-19.85785 -53.41521,-29.14093 7.4719,4.39158 -13.17418,-7.69888 -15.58788,-9.04901 -1.1728,-0.65602 -4.63231,-2.711 -3.5416,-1.92603 1.45768,1.04908 3.07684,1.85495 4.64903,2.72304 0.7075,0.39065 -1.36873,-0.85979 -2.05309,-1.28969 z" />
    <path
       style="fill:#333333;stroke:none;stroke-width:3;stroke-linecap:round"
       id="path30"
       d="m 589.47409,673.69738 c -18.02281,12.77993 -35.76944,25.95588 -53.41567,39.25085 -24.43134,19.19545 -48.14443,39.27105 -71.69359,59.53051 -8.1827,7.07154 -13.739,11.70994 -21.57643,19.12396 -3.30479,3.12626 -6.83839,6.05973 -9.72102,9.57905 -21.10476,25.76619 7.3216,-3.25237 -14.79552,18.4108 0,0 1.26676,0.77597 1.26676,0.77597 v 0 c 15.50089,-15.93711 -0.89901,-0.3256 19.56376,-15.45376 3.72378,-2.753 7.02042,-6.0412 10.53732,-9.05401 17.22277,-14.7542 4.6534,-3.87259 21.92038,-18.90404 23.25673,-20.48388 46.67301,-40.82148 71.22306,-59.75653 17.74128,-13.32676 35.45903,-26.81777 54.28239,-38.591 z" />
    <path
       style="fill:#333333;stroke:none;stroke-width:3;stroke-linecap:round"
       id="path31"
       d="m 462.50036,518.03924 c -3.66702,5.76327 -4.93223,11.98022 -5.37357,18.68332 0.0149,7.9467 0.84157,15.94812 4.10196,23.24843 0,0 2.34737,1.16762 2.34737,1.16762 v 0 c 1.36457,-3.00301 0.56948,-0.67496 0.98922,-4.57377 0.11298,-1.04947 0.4282,-2.07672 0.47093,-3.13139 0.17494,-4.31741 -0.84934,-8.6227 -0.63197,-12.94511 0.37525,-6.27885 1.0211,-13.09503 4.65312,-18.43092 z" />
    <path
       style="fill:#333333;stroke:none;stroke-width:3;stroke-linecap:round"
       id="path32"
       d="m 535.82734,576.07595 c -3.08654,5.11353 -4.2692,10.84663 -5.23028,16.65449 -0.81375,7.41419 0.0846,14.82521 0.88511,22.19391 0.66699,3.75843 0.43988,7.62401 2.59194,10.8667 0.0588,0.34003 0.11756,0.68007 0.17634,1.0201 0,0 5.65029,2.85604 5.65029,2.85604 v 0 c 0.0383,-0.29502 0.0766,-0.59005 0.11486,-0.88507 0.3116,-0.20046 0.72125,-0.29859 0.93481,-0.60137 0.81754,-1.1591 -0.49765,-7.36482 -0.37031,-8.76548 -1.08154,-7.38185 -2.56665,-14.77914 -1.67276,-22.27475 0.96524,-5.65607 2.3244,-11.30443 5.64986,-16.09393 z" />
    <path
       style="fill:#333333;stroke:none;stroke-width:3;stroke-linecap:round"
       id="path33"
       d="m 655.62078,627.16987 c -3.32843,3.45533 -6.24144,7.37306 -8.82002,11.41995 -2.26288,4.80463 0.24358,9.69926 1.19009,14.49164 0.41439,2.09813 0.6501,4.22762 0.97515,6.34143 2.01596,11.08357 -0.90634,22.25602 -0.16262,33.34921 0.096,1.43198 0.40748,2.84132 0.61122,4.26198 -0.10594,0.89918 -0.21189,1.79837 -0.31784,2.69755 0,0 4.15836,2.20858 4.15836,2.20858 v 0 c 0.19517,-0.8557 0.39033,-1.71139 0.5855,-2.56709 0.57051,-1.018 1.28616,-1.96731 1.71154,-3.05398 3.84985,-9.83481 2.39151,-22.39339 2.03108,-32.65997 -0.28806,-2.1355 -0.4757,-4.28697 -0.86419,-6.40651 -0.82592,-4.50617 -3.49614,-9.2681 -1.61402,-13.8261 2.51195,-4.04371 5.75153,-7.62442 9.08671,-11.0044 z" />
    <path
       style="fill:#333333;stroke:none;stroke-width:3;stroke-linecap:round"
       id="path34"
       d="m 780.84188,653.4932 c -3.81118,7.77475 -6.58149,16.04299 -9.35443,24.23415 -2.69078,8.7712 -4.87651,17.80006 -3.86123,27.03949 0.20809,1.89373 0.6323,3.75743 0.94845,5.63615 2.66672,10.51807 5.5235,20.98481 8.08193,31.53303 0.72644,3.11544 2.11726,5.83948 2.69251,8.97797 0,0 5.71803,2.89885 5.71803,2.89885 v 0 c 0.41822,-2.52412 1.18722,-4.89026 0.64176,-7.4856 -1.62314,-10.6455 -4.9477,-20.83817 -7.57707,-31.25922 -2.04626,-11.49362 -1.76451,-21.27803 2.39826,-32.34935 2.82085,-8.07661 5.77407,-16.23867 10.15946,-23.61837 z" />
    <path
       style="fill:#333333;stroke:none;stroke-width:3;stroke-linecap:round"
       id="path35"
       d="m 527.35902,468.31787 c -7.64505,5.43431 -9.81841,14.49834 -11.82637,23.13999 -1.34141,9.51387 -2.34737,19.27886 -1.67572,28.90454 0.32806,4.70162 1.12948,8.18542 2.00911,12.74183 0,0 2.90789,1.47881 2.90789,1.47881 v 0 c 0.88638,-4.00928 1.55097,-6.4955 1.9395,-10.71514 0.87468,-9.4996 0.11527,-19.15101 1.93312,-28.57775 2.17371,-9.30354 4.05528,-16.39741 11.86649,-22.44743 z" />
    <path
       style="fill:#333333;stroke:none;stroke-width:3;stroke-linecap:round"
       id="path36"
       d="m 611.82265,528.73093 c -5.91178,9.05196 -9.54841,19.35196 -12.20663,29.76112 -1.41757,6.63079 -2.07193,13.38269 -2.53228,20.13615 -0.1102,1.61654 -0.64641,8.37597 -0.0934,10.27415 0.52891,1.81533 1.7456,3.35464 2.6184,5.03195 0,0 1.67338,0.85449 1.67338,0.85449 v 0 c 0.89431,-0.77019 2.18085,-1.24244 2.68294,-2.31056 0.47158,-1.00326 0.61322,-9.56759 0.63279,-9.9526 0.34184,-6.72396 0.95903,-13.44899 2.36808,-20.04382 2.8495,-10.22557 6.15408,-20.51825 12.68812,-29.07017 z" />
    <path
       style="fill:#333333;stroke:none;stroke-width:3;stroke-linecap:round"
       id="path37"
       d="m 718.22139,564.73268 c -4.03196,8.77557 -7.71305,18.01669 -8.76894,27.69754 -0.27014,2.47677 -0.22628,4.97777 -0.33942,7.46665 0.38568,7.38652 2.26376,14.54952 3.68721,21.77423 0,0 1.95763,0.96485 1.95763,0.96485 v 0 c -0.43153,-6.51509 -0.40904,-12.95417 0.71034,-19.42572 0.33932,-2.3341 0.54298,-4.69199 1.01795,-7.00232 1.94048,-9.43869 5.99635,-18.25051 9.19771,-27.28409 z" />
    <path
       style="fill:#333333;stroke:none;stroke-width:3;stroke-linecap:round"
       id="path38"
       d="m 454.76013,345.59814 c -4.10186,8.78975 -8.40433,17.72417 -10.63716,27.21989 -0.52709,2.2416 -0.79223,4.53683 -1.18835,6.80524 -1.47973,7.29572 0.32192,14.2477 1.7695,21.33273 0,0 2.91806,1.43718 2.91806,1.43718 v 0 c -0.41872,-6.59592 0.99935,-12.67814 2.05209,-19.17729 2.34397,-11.71869 6.08652,-23.1586 12.567,-33.30296 z" />
    <path
       style="fill:#333333;stroke:none;stroke-width:3;stroke-linecap:round"
       id="path39"
       d="m 419.85719,417.975 c -3.23551,9.77572 -3.19261,20.64186 -1.4996,30.73714 0.45176,2.69378 1.26943,5.31327 1.90414,7.9699 0.40779,2.21382 0.81558,4.42763 1.22337,6.64145 0,0 2.19098,1.08005 2.19098,1.08005 v 0 c -0.16576,-2.09074 -0.33153,-4.18148 -0.4973,-6.27221 0.56861,-9.53843 0.16653,-19.25603 1.51089,-28.73795 0.49099,-3.46299 1.0415,-4.44841 2.20858,-7.40931 z" />
    <path
       style="fill:#333333;stroke:none;stroke-width:3;stroke-linecap:round"
       id="path40"
       d="m 421.08741,478.87694 c 2.44734,-13.81382 0.50436,-27.87042 -1.15924,-41.65389 -0.5485,-2.64727 -1.097,-5.29454 -1.6455,-7.94181 -0.81018,-2.47818 -1.85801,-4.89092 -2.43052,-7.43454 -0.38511,-1.71101 -0.28216,-3.49627 -0.42324,-5.2444 0,0 -1.88942,-0.93959 -1.88942,-0.93959 v 0 c 0.2045,1.77982 0.69554,3.54982 0.61349,5.33947 -0.0883,1.92525 -0.7456,3.78175 -1.11839,5.67262 -0.0322,2.35876 -0.0643,4.71751 -0.0965,7.07627 1.14901,13.63479 2.65315,27.50332 0.70948,41.12783 z" />
    <path
       style="fill:#333333;stroke:none;stroke-width:3;stroke-linecap:round"
       id="path41"
       d="m 542.27186,368.83764 c 8.83567,10.66552 12.51029,24.03165 15.88691,37.1649 2.1007,11.22698 2.73087,22.54476 -0.18648,33.67753 -1.18984,4.54054 -2.38817,7.02496 -4.15605,11.24706 -1.76722,3.09782 -2.74816,6.50123 -3.78769,9.8807 0,0 3.43649,2.05684 3.43649,2.05684 v 0 c 3.37703,-2.07074 5.98549,-4.0392 7.44688,-7.95596 0.73825,-1.71946 1.58891,-3.39491 2.21476,-5.1584 4.7346,-13.34094 4.20389,-27.35852 0.86496,-40.96823 -3.80806,-13.30183 -8.12734,-26.75413 -16.69881,-37.86469 z" />
    <path
       style="fill:#333333;stroke:none;stroke-width:3;stroke-linecap:round"
       id="path42"
       d="m 632.36418,433.39571 c -5.3586,3.05111 -10.56576,6.7805 -14.58574,11.51417 -1.23526,1.45456 -2.28222,3.05906 -3.42333,4.5886 -6.92765,12.14201 -8.1454,26.25321 -10.18895,39.81309 -1.23222,9.14675 -3.29227,18.11839 -5.93712,26.94646 -1.25574,2.58452 0.1179,4.29048 0.74305,6.67515 0,0 3.91351,2.14615 3.91351,2.14615 v 0 c 2.33308,-1.50175 3.14488,-0.51252 4.01054,-4.08959 2.56268,-8.96011 4.63867,-18.04589 5.51803,-27.3473 1.3156,-13.6087 1.92863,-27.86104 9.01128,-39.94147 1.14797,-1.47907 2.19153,-3.04545 3.44391,-4.43722 4.09553,-4.55137 9.86168,-7.28072 13.5336,-12.16748 z" />
    <path
       style="fill:#333333;stroke:none;stroke-width:3;stroke-linecap:round"
       id="path43"
       d="m 752.40718,501.6407 c -8.77855,7.52382 -13.77724,18.46534 -18.02973,28.97714 -1.55418,5.31629 -4.95967,13.0682 -3.72962,18.76568 0.30407,1.40841 1.1168,2.65651 1.67519,3.98477 0,0 2.14438,1.12709 2.14438,1.12709 v 0 c 0.80447,-0.60215 1.82517,-0.99176 2.41341,-1.80645 0.68248,-0.94522 0.88631,-2.15891 1.2496,-3.26672 1.54723,-4.71807 2.41588,-9.65708 4.42912,-14.22692 4.28433,-10.35763 9.34066,-21.0088 18.33919,-28.11755 z" />
    <path
       style="fill:#333333;stroke:none;stroke-width:3;stroke-linecap:round"
       id="path44"
       d="m 728.41295,576.13686 c 2.12732,0.94566 4.1211,3.39222 6.38196,2.83698 1.43699,-0.35291 -1.55602,-2.52586 -2.1736,-3.87051 -2.89575,-6.305 -2.22566,-4.69685 -2.26137,-11.25712 0,0 -2.10798,-1.08903 -2.10798,-1.08903 v 0 c -0.21204,1.74679 -0.25377,3.52279 -0.63611,5.24035 -0.28154,1.26473 -2.79447,5.67931 -1.06739,7.44583 2.64916,2.70965 6.19941,4.35986 9.29911,6.5398 z" />
    <path
       style="fill:#333333;stroke:none;stroke-width:3;stroke-linecap:round"
       id="path45"
       d="m 513.42933,300.87758 c 1.23784,-2.99257 2.36486,-6.20913 4.46509,-8.71861 2.60364,-2.46973 7.42182,-4.09231 -6.9747,-4.026 -1.08959,0.005 -1.04307,1.91385 -1.53093,2.88813 -0.66387,1.32578 -1.28239,2.67379 -1.92359,4.01069 -3.55942,8.31963 -6.84077,16.88275 -8.56745,25.80296 -0.99604,5.14563 -1.03944,8.47405 -1.34571,13.60244 -0.17927,1.70609 -0.35854,3.41218 -0.53781,5.11827 0,0 2.6458,1.41971 2.6458,1.41971 v 0 c 0.5171,-1.52143 1.03419,-3.04286 1.55129,-4.56429 2.05213,-4.51727 3.20753,-6.82528 4.90865,-11.64073 2.99264,-8.47144 4.68535,-17.4422 8.84209,-25.47431 0.66454,-1.30471 1.28907,-2.63058 1.99363,-3.91412 0.52154,-0.95013 2.2172,-1.83989 1.68229,-2.78256 -7.62358,-13.43487 -6.71703,-7.22669 -6.53848,-3.67224 -0.25804,3.38006 -2.06357,6.19424 -3.52198,9.18812 z" />
    <path
       style="fill:#333333;stroke:none;stroke-width:3;stroke-linecap:round"
       id="path46"
       d="m 602.08796,341.19937 c 0.60299,0.35708 2.43096,1.39413 1.80898,1.07124 -1.89588,-0.98422 -3.65577,-2.24694 -5.63265,-3.05625 -0.40939,-0.1676 0.673,0.64276 0.78355,1.07109 0.16162,0.62615 0.0976,1.30174 -0.006,1.93999 -0.19181,1.17735 -1.818,6.32994 -2.02929,7.02177 -1.95162,6.4001 -4.13964,12.8409 -4.44273,19.58328 -0.19233,4.27854 0.1477,6.00321 0.58941,10.25931 0.28482,1.5734 1.51833,8.6491 1.99186,10.24298 0.95473,3.21354 2.33329,6.28859 3.34152,9.48575 0,0 4.63444,2.22171 4.63444,2.22171 v 0 c -2.3946,-13.88283 0.89661,6.72023 -0.55037,-8.11216 -0.33527,-3.4368 -1.76782,-6.70788 -1.99956,-10.16455 -1.30305,-10.40979 -0.99537,-19.90157 3.42412,-29.63628 0.88607,-2.00832 5.03021,-8.78666 1.96838,-10.89401 -7.08771,-4.87822 -5.00556,-5.02922 -8.53351,-4.59122 z" />
    <path
       style="fill:#333333;stroke:none;stroke-width:3;stroke-linecap:round"
       id="path47"
       d="m 718.81087,399.96216 c -2.88733,8.53382 -5.49282,17.09723 -7.62492,25.85911 -0.5526,3.36327 -1.77698,9.94791 -1.79134,13.41918 -0.0173,4.19319 0.94249,8.44905 1.69361,12.5442 0,0 2.05613,1.06299 2.05613,1.06299 v 0 c 1.25109,-3.28628 2.57719,-6.43514 3.3078,-9.90473 0.91399,-4.34043 0.80432,-8.86025 2.08259,-13.14286 2.32826,-8.70684 5.56633,-17.14282 7.40497,-25.98276 z" />
    <path
       style="fill:#333333;stroke:none;stroke-width:3;stroke-linecap:round"
       id="path48"
       d="m 777.62025,304.19451 c -4.53561,7.36185 -5.12559,16.72312 -6.01511,25.10695 -0.48907,4.60943 -1.84538,21.54094 -2.19599,25.82421 -1.67348,19.89571 -3.52193,39.76603 -6.60531,59.49671 -0.27646,1.91547 -0.93885,5.67634 -0.86193,7.80859 0.0502,1.39062 0.43844,2.75355 0.51107,4.14319 0,0 5.89071,3.16043 5.89071,3.16043 v 0 c 0.57168,-1.00112 1.44924,-1.81985 1.94089,-2.86261 0.90447,-1.9183 1.40559,-5.51286 1.7552,-7.369 2.87213,-19.95111 3.7946,-40.10751 5.44105,-60.18278 0.54395,-6.90754 1.39084,-18.71042 2.25303,-25.73287 0.90346,-7.35861 1.99365,-15.22743 4.95304,-22.11932 0.34434,-0.80192 0.87473,-1.51045 1.3121,-2.26568 z" />
    <path
       style="fill:#333333;stroke:none;stroke-width:3;stroke-linecap:round"
       id="path49"
       d="m 652.53428,252.61316 c -0.62863,0.65805 -1.35291,1.2365 -1.88589,1.97415 -7.17757,9.93392 -8.35456,24.92279 -9.48995,36.64154 -0.61191,16.51073 -1.82148,33.18318 -0.70177,49.69668 0.7279,10.40743 -0.3827,-1.29086 1.35408,8.13152 0.16063,0.87147 0.0902,1.77001 0.13531,2.65501 0,0 1.99735,1.06531 1.99735,1.06531 v 0 c 1.56474,-3.12877 3.6956,-4.29373 3.58522,-8.2162 0.25174,-1.65664 0.6273,-3.29916 0.75523,-4.96992 0.30334,-3.9616 0.0454,-10.99543 0.008,-14.76578 -0.097,-9.87287 -0.0501,-19.75266 0.50264,-29.6137 1.21456,-12.92171 2.24813,-27.64144 11.41655,-37.74291 z" />
    <path
       style="fill:#333333;stroke:none;stroke-width:3;stroke-linecap:round"
       id="path50"
       d="m 553.40805,204.38641 c 1.72914,9.56123 1.50601,19.3107 1.51339,28.98659 0.38508,16.78426 -2.01082,33.43803 -2.6539,50.1781 0.0948,4.5449 -0.13343,7.48744 1.06418,11.89772 0.49938,1.83899 1.37771,3.55345 2.06657,5.33018 0,0 2.91107,1.43958 2.91107,1.43958 v 0 c 1.23667,-4.79704 1.81015,-9.61569 1.87584,-14.588 0.87666,-16.78778 2.8413,-33.53151 2.35294,-50.37557 0.0304,-9.8973 0.8417,-20.14959 -2.4928,-29.65014 z" />
    <path
       style="fill:#333333;stroke:none;stroke-width:3;stroke-linecap:round"
       id="path51"
       d="m 448.05575,226.8179 c -1.15043,5.26117 -2.41474,10.49653 -3.74369,15.71531 -0.4196,1.64778 -1.02161,3.25689 -1.2836,4.93694 -0.26089,1.67295 -0.18483,3.38129 -0.27724,5.07194 -0.2358,1.33253 -0.4716,2.66506 -0.7074,3.99759 0,0 4.84774,2.65419 4.84774,2.65419 v 0 c 0.53046,-1.17197 1.06091,-2.34395 1.59137,-3.51593 0.812,-1.2986 1.78959,-2.50732 2.436,-3.89579 2.91439,-6.26005 3.6919,-13.96469 5.16097,-20.67417 z" />
    <path
       style="fill:#333333;stroke:none;stroke-width:3;stroke-linecap:round"
       id="path52"
       d="m 411.33054,274.70381 c -3.2908,9.82316 -6.47344,19.62883 -8.87748,29.71815 -0.40389,3.05408 -1.52666,10.48562 -1.40203,13.65265 0.0866,2.20036 0.66998,4.35286 1.00497,6.52929 0,0 2.52317,1.30217 2.52317,1.30217 v 0 c 0.53695,-1.70994 1.18475,-3.38894 1.61084,-5.12982 0.50775,-2.07449 0.79055,-4.19766 1.18583,-6.29649 0.54492,-2.16463 1.08983,-4.32925 1.63475,-6.49388 1.79119,-5.82063 2.19804,-7.50932 4.39018,-13.179 2.04794,-5.2967 4.98012,-10.45864 5.62495,-16.18218 z" />
    <path
       style="fill:#333333;stroke:none;stroke-width:3;stroke-linecap:round"
       id="path53"
       d="m 422.90258,146.11675 c -8.11971,3.71279 -12.90424,11.58421 -16.6958,19.28211 -0.33343,1.65239 -0.90467,3.27419 -1.00029,4.95717 -0.52193,9.18664 6.40905,17.40759 11.19811,24.5984 2.43603,3.95394 6.28296,7.90866 6.56225,12.8248 0.1449,2.55063 -0.63057,4.30327 -1.35046,6.71951 -0.84157,2.37623 -2.16159,5.6264 -2.32576,8.16102 -0.10684,1.6495 0.25327,3.29619 0.37991,4.94428 0,0 3.45021,1.92648 3.45021,1.92648 v 0 c 1.15581,-0.92833 2.47476,-1.68395 3.46745,-2.78498 1.87869,-2.08373 2.84479,-4.83625 3.93548,-7.34361 0.44307,-1.22026 1.02375,-2.39902 1.32921,-3.66078 1.64157,-6.78067 -2.91539,-12.10721 -6.86392,-17.05251 -5.19058,-7.12338 -12.18011,-14.89442 -12.13132,-24.26982 0.009,-1.64439 0.45302,-3.25747 0.67953,-4.8862 0.63904,-1.57136 1.12225,-3.2155 1.91712,-4.71407 3.13039,-5.90172 8.36576,-11.25525 14.6201,-13.70444 z" />
    <path
       style="fill:#333333;stroke:none;stroke-width:3;stroke-linecap:round"
       id="path54"
       d="m 500.83022,145.79289 c -3.16857,5.22878 -7.71506,9.64561 -10.22407,15.29173 -0.54712,1.23121 -0.83382,2.56234 -1.25073,3.84351 -1.03885,7.51349 1.55856,14.09391 5.27094,20.42212 1.65344,2.54437 3.43953,4.9513 2.78256,8.06919 -0.67199,2.31694 -2.05076,4.33605 -2.89916,6.57385 -0.59625,1.82403 -0.61807,3.7887 -0.55473,5.6898 0.14861,1.26778 0.45769,2.78444 1.25846,3.8301 2.41004,3.14708 1.1386,0.47051 2.00999,2.49383 0,0 1.95416,0.99405 1.95416,0.99405 v 0 c 0.98414,-1.32708 2.92884,0.70531 3.2499,-2.9881 0.10822,-1.78726 0.005,-3.61408 0.51951,-5.34854 0.76745,-2.29119 1.96444,-4.42659 3.11396,-6.54233 1.40124,-4.23835 -0.27892,-5.3623 -2.63766,-8.9074 -4.27218,-6.0805 -7.54087,-12.76546 -6.95151,-20.40818 0.31096,-1.2741 0.47629,-2.59284 0.93289,-3.82228 2.15529,-5.80332 6.9922,-10.13699 10.63565,-14.96641 z" />
    <path
       style="fill:#333333;stroke:none;stroke-width:3;stroke-linecap:round"
       id="path55"
       d="m 638.06872,137.02316 c -5.57337,1.72962 -7.6717,5.34101 -8.19201,10.91333 0.50461,4.15637 2.82264,7.6936 5.22849,11.01016 0.77829,0.85092 1.42128,1.69308 2.04855,2.63001 0.78509,1.75612 1.0192,3.75542 1.16175,5.66397 -0.33039,3.94566 -2.4422,7.49774 -4.13065,10.99693 -2.78518,5.69219 -5.72778,11.30301 -8.09539,17.18512 -1.3765,3.46409 -2.37459,7.01941 -3.29294,10.6275 -1.15947,3.77357 -2.76866,7.37631 -4.25092,11.02709 -0.56436,1.61904 -1.29264,3.25532 -0.1926,4.7413 1.63288,1.25386 0.80124,0.6543 2.49414,1.79975 0,0 2.00363,1.03181 2.00363,1.03181 v 0 c 1.69787,0.63322 0.8457,0.34381 2.55587,0.87011 1.38449,-0.14622 1.46797,-2.35272 2.21102,-3.36819 1.51639,-3.68929 3.19153,-7.31087 4.4097,-11.11235 0.86824,-3.59551 1.56092,-7.22733 2.83807,-10.71969 2.29113,-5.86659 5.34603,-11.42742 8.08992,-17.08782 1.88145,-3.62145 4.18819,-7.18473 4.72013,-11.30717 -0.14823,-2.11864 -0.28517,-4.25798 -1.15752,-6.23003 -0.13075,-0.21154 -0.2615,-0.42308 -0.39225,-0.63461 -0.14141,-0.0944 -0.33441,-0.13879 -0.42424,-0.28314 -0.38152,-0.61312 -0.495,-1.40826 -1.29337,-1.84999 -2.68347,-3.13858 -5.43291,-6.53803 -6.22024,-10.68069 0.26509,-5.44479 2.24926,-8.54763 7.79896,-9.70602 z" />
    <path
       style="fill:#333333;stroke:none;stroke-width:3;stroke-linecap:round"
       id="path56"
       d="m 747.16875,150.04427 c 3.95165,16.32233 2.92092,33.46776 2.61205,50.12954 -0.47243,17.46465 -1.16672,34.91165 -0.89218,52.38414 0.46504,11.79792 -1.51115,23.22649 -5.38804,34.31929 -0.72878,3.37521 -4.72339,9.0394 -4.29579,12.49229 0.0904,0.73018 0.49307,1.38646 0.7396,2.0797 0,0 3.27201,1.91144 3.27201,1.91144 v 0 c 0.76744,-0.11116 1.5791,-0.0537 2.3023,-0.33348 3.72551,-1.44136 5.69438,-7.85069 7.40699,-10.94423 3.86276,-11.22014 5.96811,-22.84944 5.37318,-34.76579 -0.77826,-17.61416 -0.81103,-35.21121 -0.0983,-52.83483 0.27293,-16.78684 0.73055,-33.80774 -2.39318,-50.38105 z" />
    <path
       style="fill:#333333;stroke:none;stroke-width:3;stroke-linecap:round"
       id="path57"
       d="m 694.18608,80.434372 c 3.28791,9.492133 5.70165,19.258251 8.56906,28.884758 1.85656,5.01722 2.73663,10.62087 5.26846,15.39151 0.12286,0.2315 4.99185,7.4137 5.50369,8.1698 0,0 1.44901,0.66912 1.44901,0.66912 v 0 c -0.0266,-1.83575 0.4155,-3.68805 0.15636,-5.50562 -0.74095,-5.1968 -3.75968,-9.94114 -4.71645,-15.08654 -2.63169,-9.5947 -5.44961,-19.137248 -8.05177,-28.740655 z" />
    <path
       style="fill:#333333;stroke:none;stroke-width:3;stroke-linecap:round"
       id="path58"
       d="m 556.92625,61.968942 c -6.71229,9.718069 -9.56129,21.660427 -12.04701,33.043556 -2.05879,9.922732 -2.18268,19.888582 -0.59644,29.849502 0.84667,3.65183 0.99257,7.51837 2.45931,10.99994 0.47141,0.94275 1.11322,1.7756 1.62935,2.69417 0.53965,1.52123 1.1729,2.52903 2.26626,3.85286 0.25396,0.4984 0.50791,0.9968 0.76187,1.4952 0,0 5.79916,2.67169 5.79916,2.67169 v 0 c -0.13667,-0.43805 -0.27335,-0.87611 -0.41003,-1.31417 0.49787,-0.81462 0.43732,-1.49633 0.62467,-2.40292 0.0466,-1.08405 -0.35156,-1.85764 -1.08094,-2.64955 -1.85097,-3.25447 -1.76781,-7.31287 -2.82132,-10.84444 -1.88449,-9.91342 -2.08413,-19.92383 -0.33865,-29.905915 2.32811,-11.307176 4.92166,-23.018832 11.84166,-32.533658 z" />
    <path
       style="fill:#333333;stroke:none;stroke-width:3;stroke-linecap:round"
       id="path59"
       d="m 444.82507,86.473349 c -0.14634,11.247462 -1.42929,22.466691 -2.23844,33.685971 0.0595,10.11928 -0.43044,2.25602 1.35812,11.97748 0.26057,1.41629 0.35765,2.85783 0.53647,4.28675 0,0 2.08824,1.07791 2.08824,1.07791 v 0 c 0.31609,-1.17269 0.52548,-2.3795 0.94828,-3.51808 3.00683,-8.09741 1.29579,0.15043 2.69809,-9.86504 0.86229,-11.21327 2.31707,-22.39902 2.45055,-33.649643 z" />
    <path
       style="fill:#333333;stroke:none;stroke-width:3;stroke-linecap:round"
       id="path60"
       d="m 503.18677,-10.768803 c -3.94848,14.0411997 -3.71262,28.80045 -3.12939,43.239503 1.24008,9.036597 0.54612,18.828222 4.33831,27.354389 0.66881,1.503705 1.6301,2.859455 2.44515,4.289183 0,0 2.62023,1.256788 2.62023,1.256788 v 0 c 0.24197,-0.911576 0.64122,-1.795396 0.7259,-2.73473 0.79584,-8.827858 -2.86048,-17.626758 -2.71788,-26.432941 -0.77798,-14.502086 -1.23498,-29.0942229 2.59349,-43.2538975 z" />
    <path
       style="fill:#333333;stroke:none;stroke-width:3;stroke-linecap:round"
       id="path61"
       d="m 618.65579,-37.014275 c 3.37019,-1.061879 6.56687,-2.583665 9.93681,-3.681339 3.41768,-0.571294 11.8573,-4.984092 -6.58419,-4.179993 -1.42389,0.06209 -0.99235,2.672177 -1.48853,4.008265 -6.36921,21.741064 -8.8082,44.416821 -10.62853,66.925728 0.0238,10.184896 -2.7737,23.251611 1.72289,32.872117 0,0 2.47742,1.257129 2.47742,1.257129 v 0 c 1.88656,-2.282783 1.93869,-4.784047 2.25642,-7.698987 0.81068,-7.437291 0.77839,-14.900495 1.39211,-22.35597 1.5829,-22.3648014 3.86957,-44.948108 11.36252,-66.231015 0.50168,-1.320801 2.21689,-2.741957 1.50505,-3.962402 -6.83845,-11.724478 -5.39597,-7.805123 -9.44077,-5.568679 -2.75438,1.642834 -5.62327,3.061402 -8.49819,4.485557 z" />
    <path
       style="fill:#333333;stroke:none;stroke-width:3;stroke-linecap:round"
       id="path62"
       d="m 725.83832,-56.78818 c 1.04814,17.517953 4.71549,34.470276 9.61548,51.27172 3.53587,10.154468 7.67633,20.164479 13.24811,29.393506 4.02796,6.671858 8.99223,12.642376 13.98156,18.593059 4.76967,5.547383 9.70945,11.132798 12.65342,17.906259 0.94505,2.074117 0.93998,4.282832 1.024,6.504425 0.0471,3.009083 3.37024,4.41412 5.56641,5.788915 1.12494,0.609032 2.24987,1.218064 3.37481,1.827097 0,0 2.50805,1.006949 2.50805,1.006949 v 0 c 0.32596,-0.03217 0.65192,-0.06433 0.97788,-0.0965 -0.91139,-1.163199 -3.17178,-2.061531 -3.04166,-3.707551 0.23459,-2.331965 -0.22638,-4.591827 -0.75613,-6.86565 -2.71086,-7.128767 -7.93869,-12.772804 -12.93624,-18.398546 -2.77276,-3.16057 -7.1781,-8.093208 -9.66323,-11.327302 C 753.82694,23.963405 747.5942,11.334518 743.02725,-1.9296073 738.01257,-18.448585 733.5952,-35.529229 733.46864,-52.900335 Z" />
    <path
       style="fill:#333333;stroke:none;stroke-width:3;stroke-linecap:round"
       id="path63"
       d="m 321.87722,488.14642 c -3.15329,8.4192 -5.62147,17.05468 -6.53016,26.02824 -0.28509,2.81534 -0.35249,5.64849 -0.52873,8.47274 -0.20731,16.52242 3.60699,32.73727 8.55404,48.40078 0.90361,1.71948 1.80723,3.43897 2.71084,5.15845 0,0 5.71311,2.69806 5.71311,2.69806 v 0 c -0.0322,-1.30264 -0.0645,-2.60529 -0.0968,-3.90793 -4.20239,-15.64985 -8.63794,-31.4511 -8.15134,-47.82894 0.80652,-11.70074 2.38087,-23.27852 7.41395,-34.01792 z" />
    <path
       style="fill:#333333;stroke:none;stroke-width:3;stroke-linecap:round"
       id="path64"
       d="m 211.64808,538.01699 c -4.39628,6.74735 -8.50607,13.68609 -11.79025,21.04489 -1.92104,5.61386 0.0995,8.7439 2.06588,13.76665 1.19545,3.05353 1.29881,4.17785 1.99201,7.39778 1.13946,3.78139 -0.38727,7.56713 -0.32017,11.3294 0.0258,1.4454 0.38044,2.86613 0.57066,4.29919 0,0 3.03352,1.69585 3.03352,1.69585 v 0 c 1.0807,-0.76341 2.40839,-1.26278 3.2421,-2.29023 2.46691,-3.04019 1.47544,-7.68433 1.45603,-11.17544 -0.86408,-4.11837 -0.59385,-3.89233 -2.30648,-7.77511 -1.99137,-4.5147 -4.69263,-8.2565 -2.99759,-13.43347 3.56719,-7.17461 8.25799,-13.7568 11.56873,-21.08377 z" />
    <path
       style="fill:#333333;stroke:none;stroke-width:3;stroke-linecap:round"
       id="path65"
       d="m 82.941883,590.25838 c -8.053602,5.79036 -16.040542,14.83625 -19.795848,24.09444 -0.944548,2.32865 -1.357443,4.83906 -2.036165,7.25859 -1.777859,12.71914 0.256831,23.05621 5.933793,34.3826 0.342772,1.0676 0.685545,2.13519 1.028318,3.20279 0,0 4.909603,2.33099 4.909603,2.33099 v 0 c -0.260001,-1.03117 -0.520003,-2.06233 -0.780004,-3.0935 -0.512058,-11.09959 -6.431156,-21.5785 -3.969931,-32.92217 0.773852,-2.30151 1.341344,-4.68305 2.321556,-6.90453 4.140214,-9.38309 11.442103,-17.66212 19.795183,-23.47599 z" />
    <path
       style="fill:#333333;stroke:none;stroke-width:3;stroke-linecap:round"
       id="path66"
       d="m 131.23928,527.19986 c -4.54816,8.78616 -6.67602,18.74663 -7.91801,28.50282 -0.18503,4.76608 0.003,10.01246 2.91813,14.04684 0.69186,0.95761 1.57611,1.76029 2.36417,2.64043 0,0 2.63106,1.1826 2.63106,1.1826 v 0 c 0.77031,-4.60677 -1.24319,-9.26719 -0.38878,-13.92033 1.12409,-9.67361 3.44506,-19.28122 8.29841,-27.82029 z" />
    <path
       style="fill:#333333;stroke:none;stroke-width:3;stroke-linecap:round"
       id="path67"
       d="m 276.07216,501.08579 c -1.74787,1.887 -2.51939,4.38719 -3.89259,6.50376 -0.30004,0.46248 -2.90461,3.70702 -3.24248,4.13072 -2.78635,4.0918 -8.88135,8.10635 5.51436,7.36307 1.16786,-0.0603 0.14766,-2.33416 0.22594,-3.50095 0.11291,-1.68315 0.23173,-3.36589 0.3476,-5.04884 0.66085,-12.65102 -1.11018,-25.88658 -8.84342,-36.36529 -1.43725,-1.9475 -3.27739,-3.56264 -4.91609,-5.34396 -8.92483,-6.74287 -18.01465,-11.93522 -29.3283,-12.15356 -1.19288,-0.023 -4.81812,0.25521 -6.31377,0.36193 2.78242,1.48305 5.40403,3.31836 8.34727,4.44913 0.40932,0.15726 3.84721,-7.57992 4.10066,-8.09925 0,0 -2.95532,-1.81789 -2.95532,-1.81789 v 0 c -1.50864,0.7675 -2.99531,1.57978 -4.5259,2.30249 -1.30524,0.61631 -2.75313,0.94769 -3.97725,1.71253 -0.7838,0.48972 -2.58643,1.3249 -1.93768,1.98314 2.41114,2.44643 5.96077,3.41523 8.94116,5.12285 3.48347,-0.68543 6.58749,-0.8043 10.14151,-0.19147 1.83169,0.31584 3.65845,1.80985 5.43282,1.25625 1.01431,-0.31647 -3.23963,-2.66271 -2.26249,-2.24539 2.00969,0.85828 3.64613,2.40992 5.46919,3.61489 1.64827,1.70808 3.51181,3.23194 4.94481,5.12425 7.88017,10.40595 9.34264,22.97457 8.562,35.55899 -0.12667,1.6773 -0.25032,3.35483 -0.38002,5.0319 -0.092,1.18979 -1.0553,2.65714 -0.2851,3.56867 9.55306,11.30608 8.43898,7.74177 10.78989,1.3603 0.47698,-1.71648 0.72641,-3.50802 1.39522,-5.15924 0.94447,-2.3318 2.81911,-4.26188 3.94042,-6.5056 z" />
    <path
       style="fill:#333333;stroke:none;stroke-width:3;stroke-linecap:round"
       id="path68"
       d="m 168.22137,519.45323 c 0.0701,-3.22793 0.86241,-6.42381 0.37989,-9.65618 -0.24569,-1.64585 -1.47478,-5.91043 -1.85475,-7.29719 -3.66221,-14.58468 -4.28672,-29.71489 -4.89644,-44.67748 -0.74386,-4.49413 -0.25601,-9.1226 -0.77252,-13.62891 -0.19126,-1.66868 -0.6476,-3.2977 -0.88644,-4.96023 0,0 -5.63041,-2.947 -5.63041,-2.947 v 0 c -2.33612,5.43758 -0.89064,11.45458 -1.29017,17.21558 0.81535,15.17122 1.81233,30.46829 5.52991,45.25173 2.14615,5.99819 4.58412,12.11562 5.12069,18.5086 z" />
    <path
       style="fill:#333333;stroke:none;stroke-width:3;stroke-linecap:round"
       id="path69"
       d="m 323.78883,408.55889 c -5.59997,9.73702 -4.84637,21.26772 -3.7769,32.02015 1.28282,11.1705 4.73319,21.87488 8.59941,32.37574 2.14076,3.94351 3.98664,8.02074 6.74683,11.57064 0,0 2.39982,1.12016 2.39982,1.12016 v 0 c 1.16218,-2.72979 -0.54724,-5.91416 -0.67318,-8.74901 -3.9981,-10.50473 -7.68817,-21.17858 -9.1519,-32.38192 -1.0907,-10.54897 -1.90589,-21.72824 3.80577,-31.20428 z" />
    <path
       style="fill:#333333;stroke:none;stroke-width:3;stroke-linecap:round"
       id="path70"
       d="m 315.6989,336.94411 c 0.56366,-0.0209 1.12717,-0.0463 1.69098,-0.0627 1.44891,-0.0422 2.90013,-0.20242 4.34703,-0.11536 0.76412,0.046 2.83897,0.85816 2.27034,0.34566 -1.15326,-1.03944 -3.25319,-3.31177 -4.17584,-2.0631 -0.93256,1.26207 2.03422,2.38996 3.05134,3.58494 6.76319,9.6483 9.64436,21.17886 13.24747,32.22169 2.19578,6.77189 4.90606,13.38953 9.79112,18.64619 0,0 4.33949,1.95573 4.33949,1.95573 v 0 c 0.60555,-2.23024 -0.74973,-3.7965 -1.76605,-5.76255 -1.8917,-3.65945 -3.54617,-7.42491 -4.87848,-11.32749 -3.8714,-11.07144 -7.01406,-22.60837 -13.36403,-32.58922 -0.97696,-1.27316 -1.64333,-2.86155 -2.93086,-3.81949 -6.14871,-4.57471 -9.72804,-7.2336 -15.91241,-3.97327 z" />
    <path
       style="fill:#333333;stroke:none;stroke-width:3;stroke-linecap:round"
       id="path71"
       d="m 212.86696,311.99864 c -3.60361,13.92873 -3.24241,28.45643 -2.61458,42.70837 0.61836,8.57383 2.17561,17.01236 4.24102,25.34399 0.62262,2.51159 1.03051,5.10331 2.01194,7.49758 1.06126,2.58903 2.7308,4.88481 4.0706,7.34129 1.03695,1.90121 2.03963,3.82092 3.05945,5.73138 0.39093,1.18907 0.78186,2.37814 1.17279,3.56721 0,0 1.51738,0.70883 1.51738,0.70883 v 0 c -0.46897,-1.22457 -0.93794,-2.44913 -1.40691,-3.6737 -0.12115,-1.48848 -0.27604,-2.97461 -0.36346,-4.46545 -0.10706,-1.8259 0.10719,-3.68314 -0.21984,-5.48269 -0.46561,-2.56206 -1.50919,-4.98673 -2.14184,-7.51273 -2.07838,-8.29828 -3.40767,-16.77368 -4.40208,-25.26216 -0.80678,-14.1698 -0.67822,-28.32604 3.10829,-42.12332 z" />
    <path
       style="fill:#333333;stroke:none;stroke-width:3;stroke-linecap:round"
       id="path72"
       d="m 61.85005,366.1139 c -2.56375,4.08087 -4.072481,5.87432 -5.27264,10.98455 -2.824069,12.02477 -0.07269,24.26106 3.077982,35.86245 1.884473,7.81654 5.962205,14.92924 7.869335,22.73328 1.016425,4.15924 0.836191,5.06069 0.976766,9.25055 -0.08735,7.16845 -2.141477,14.09299 -2.359607,21.24783 -0.393014,2.97892 1.275999,4.16893 1.33433,7.13074 0,0 3.270473,1.71153 3.270473,1.71153 v 0 c 0.817222,-3.16784 2.368877,-1.59562 2.832144,-4.90619 2.013303,-6.68447 3.437349,-13.7325 3.806063,-20.69444 -0.133847,-4.12337 0.02693,-5.44997 -0.951278,-9.53626 -1.961814,-8.19513 -7.292356,-15.14195 -9.264504,-23.36544 -2.596768,-8.86372 -4.8704,-17.54756 -4.722122,-26.89119 0.04653,-2.93182 0.122076,-5.9176 0.866089,-8.75383 1.200729,-4.57726 3.372293,-6.59767 6.148629,-9.93446 z" />
    <path
       style="fill:#333333;stroke:none;stroke-width:3;stroke-linecap:round"
       id="path73"
       d="m 110.98604,258.3701 c -5.2386,4.95837 -7.54411,12.54601 -9.74975,19.18194 -3.090278,9.29745 -2.803292,9.0018 -5.086107,18.53049 -3.005449,11.35209 -2.898599,22.93708 -0.612228,34.3672 0,0 1.945818,0.99222 1.945818,0.99222 v 0 c 2.689437,-10.32867 3.795117,-20.98672 5.933277,-31.43481 0.76776,-3.08574 1.40581,-6.20668 2.30326,-9.25723 2.91066,-9.8937 7.5465,-19.04557 11.69868,-28.43769 z" />
    <path
       style="fill:#333333;stroke:none;stroke-width:3;stroke-linecap:round"
       id="path74"
       d="m 282.93269,239.80761 c -1.16507,-0.0639 2.86051,-0.87431 2.11927,-1.20899 -2.7499,-1.24161 -5.55409,-2.92966 -8.57124,-2.90965 -1.13394,0.008 -1.08955,1.98912 -1.6456,2.9774 -4.11715,7.31748 -0.38317,0.49772 -4.6562,8.39108 -2.92504,5.96404 -8.22064,12.3541 -7.19311,19.49443 0.17015,1.18236 0.69258,2.28649 1.03888,3.42974 1.86195,3.91682 1.01634,2.08024 2.55391,5.50184 0,0 2.30924,1.09362 2.30924,1.09362 v 0 c -0.29449,-2.63604 -0.35756,-1.29636 0.25624,-4.01532 0.96365,-2.96939 1.10124,-6.0146 2.18306,-8.96057 1.58639,-4.31998 4.18552,-8.20141 6.69159,-12.0186 0.4966,-0.81226 6.65541,-11.08226 6.52478,-11.30989 -1.54747,-2.69645 -4.4272,-4.39928 -6.93569,-6.23585 -0.57645,-0.42205 -0.61013,2.49578 -0.99045,1.90073 z" />
    <path
       style="fill:#333333;stroke:none;stroke-width:3;stroke-linecap:round"
       id="path75"
       d="m 268.19886,272.05644 c -0.44153,4.98207 1.17869,9.96683 2.62236,14.69282 0.20044,1.05053 0.91323,1.8675 1.3029,2.83019 0.0906,0.22388 0.0962,0.94458 0.14941,0.70899 0.0744,-0.32962 -0.3978,-1.12899 -0.0814,-1.01045 2.39105,0.89573 4.35961,2.77479 6.79956,3.5272 1.09749,0.33843 -1.74633,-1.49213 -2.6195,-2.23819 -0.7928,-0.83525 -1.5856,-1.67049 -2.3784,-2.50574 0,0 -5.80612,-2.45734 -5.80612,-2.45734 v 0 c 0.55799,0.74058 1.11599,1.48115 1.67398,2.22172 2.14555,4.40613 1.04313,2.85566 9.62916,6.96445 0.31684,0.15162 0.55589,-0.53824 0.56516,-0.88936 0.0377,-1.42851 -2.29088,-2.71169 -2.43882,-4.05792 -2.954,-4.80987 -5.18201,-9.88821 -5.20112,-15.6376 z" />
    <path
       style="fill:#333333;stroke:none;stroke-width:3;stroke-linecap:round"
       id="path76"
       d="m 188.66725,203.57265 c -1.28999,12.61158 -1.82976,24.83229 0.16969,37.39606 2.60859,6.27978 1.63131,3.3809 3.1457,8.6216 0,0 2.517,1.20644 2.517,1.20644 v 0 c -0.92021,-4.5113 -0.83839,-2.16638 -0.0704,-7.03869 -0.0705,-12.13374 -0.60695,-24.33414 1.62481,-36.3369 z" />
    <path
       style="fill:#333333;stroke:none;stroke-width:3;stroke-linecap:round"
       id="path77"
       d="m 42.409659,191.62537 c -2.614981,12.18259 -4.99739,24.49584 -6.407422,36.88645 -1.682113,10.22 0.56769,20.32205 1.848943,30.42387 0,0 2.163481,1.08678 2.163481,1.08678 v 0 c 0.165422,-9.35822 1.804873,-18.56532 2.950806,-27.84529 1.90286,-12.34319 4.203225,-24.6282 6.071418,-36.96794 z" />
    <path
       style="fill:#333333;stroke:none;stroke-width:3;stroke-linecap:round"
       id="path78"
       d="m 37.307345,286.20449 c -0.902216,1.06328 -0.562237,0.3327 -0.590385,1.75032 -0.06582,3.31502 -0.889431,4.44765 7.456472,3.87022 1.042439,-0.0721 1.67e-4,-2.08986 2.5e-4,-3.13479 -0.04268,-6.48789 0.02029,-13.07345 -0.80242,-19.52394 -3.376179,-26.47102 -0.101943,7.54371 -2.248564,-16.41614 0,0 -4.026383,-2.01417 -4.026383,-2.01417 v 0 c 0.147367,2.52576 0.45584,5.04727 0.442102,7.57729 -0.01387,2.55399 -0.442462,5.09139 -0.524754,7.64409 -0.2055,6.37455 0.365879,12.74836 0.116235,19.12248 -0.283344,5.7199 -0.992206,2.66386 7.07011,7.52501 0.174588,0.10527 -0.290832,-0.28967 -0.403678,-0.45946 -0.952488,-1.43311 -1.796101,-2.94186 -2.945536,-4.24345 z" />
    <path
       style="fill:#333333;stroke:none;stroke-width:3;stroke-linecap:round"
       id="path79"
       d="m 323.43212,188.49012 c 1.94625,-1.96876 3.84761,-4.24126 6.0935,-5.91504 0.11284,0.0561 0.45166,0.22361 0.33851,0.16819 -2.47204,-1.2109 -4.77768,-2.84667 -7.41518,-3.6346 -0.48299,-0.14429 0.2025,0.99002 0.24432,1.49236 0.0651,0.78194 0.0215,1.56994 0.0759,2.3527 0.10738,1.54796 0.68814,7.00002 0.81539,8.22784 1.09717,5.67573 1.57514,11.56431 3.01098,17.17323 0.83052,3.24433 3.17556,9.43462 4.33522,12.612 0,0 2.59304,1.276 2.59304,1.276 v 0 c 0.5138,-3.34921 1.19348,-6.62641 0.94267,-10.05223 -0.41905,-5.72388 -2.57313,-11.29155 -2.8734,-17.04487 -0.19908,-1.53718 -0.44352,-3.06916 -0.59723,-4.61153 -0.27724,-2.78192 0.54402,-19.0237 -9.00213,-12.57207 -1.64579,2.18051 -2.63102,4.8646 -4.60681,6.82348 z" />
    <path
       style="fill:#333333;stroke:none;stroke-width:3;stroke-linecap:round"
       id="path80"
       d="m 228.58362,128.09492 c 3.9476,-0.1534 7.92382,-0.29845 11.88414,-0.26202 3.57224,2.94919 -2.32758,-2.09481 -5.32676,-1.76461 -0.18241,0.0201 -1.35381,22.89429 -1.39775,24.0764 0.10144,7.57578 -0.75324,15.3179 0.5237,22.84957 3.65738,21.57192 0.43695,-5.02895 2.30224,11.60351 0,0 4.50226,2.23902 4.50226,2.23902 v 0 c -0.9342,-11.23528 -0.19451,1.99958 0.37626,-10.23482 0.35207,-7.54647 -0.94144,-15.1702 -0.45544,-22.72554 0.16433,-3.5441 0.4893,-11.4169 0.80729,-15.13736 0.63213,-7.39601 3.87962,-12.7192 -7.49773,-15.30085 -1.45651,0.32606 -3.07012,0.37729 -4.4883,0.80454 -1.48346,0.44691 -2.81303,1.53844 -4.42736,1.64669 z" />
    <path
       style="fill:#333333;stroke:none;stroke-width:3;stroke-linecap:round"
       id="path81"
       d="m 107.33509,119.8055 c -0.20987,14.32601 0.27601,28.60447 1.55139,42.87378 0.98224,7.24936 1.70434,14.67871 4.09132,21.65011 1.35268,3.95063 2.51,5.69181 4.47184,9.20532 0,0 1.72968,0.82812 1.72968,0.82812 v 0 c 1.94492,-9.3138 -2.02477,-18.44456 -2.43078,-27.76428 -1.23538,-14.22633 -1.90541,-28.46559 -1.47748,-42.74947 z" />
    <path
       style="fill:#333333;stroke:none;stroke-width:3;stroke-linecap:round"
       id="path82"
       d="M 92.353224,-14.823182 C 86.357422,-6.8507005 80.732568,1.4568759 75.419583,9.9228091 64.337622,29.432543 60.050372,51.489957 57.094354,73.458169 c -0.876587,8.425328 -1.547566,11.928126 -1.263731,20.290965 1.003714,11.131966 0.758014,5.904271 0.896548,15.674766 0,0 0.916447,0.4754 0.916447,0.4754 v 0 c 2.581928,-15.304614 -0.896226,3.80347 3.209012,-13.528319 1.665353,-7.030906 2.090061,-12.100191 3.006147,-19.352846 2.87278,-21.90067 7.127481,-43.778907 18.339612,-63.149749 5.269076,-8.4599645 3.006738,-5.1067857 8.355306,-12.6945201 2.396224,-3.3993987 5.647198,-7.0853448 7.166866,-11.0435613 0.228083,-0.5940796 0.205883,-1.2559556 0.308824,-1.8839336 z" />
    <path
       style="fill:#333333;stroke:none;stroke-width:3;stroke-linecap:round"
       id="path83"
       d="m 200.5195,43.934806 c -6.55273,3.609482 -11.63864,9.730811 -14.90179,16.408632 -1.02433,2.096221 -1.76451,4.319733 -2.64676,6.479599 -4.37492,13.942303 -6.17379,28.67258 -5.80882,43.257383 0.28833,1.94385 0.57666,3.88771 0.865,5.83156 0,0 2.70527,1.40917 2.70527,1.40917 v 0 c 0.59694,-1.4812 1.19388,-2.9624 1.79081,-4.4436 0.44731,-1.89883 0.99264,-3.77721 1.34193,-5.69648 2.1976,-12.075395 1.85966,-24.645661 6.4562,-36.248878 3.44659,-8.566606 7.7481,-18.246861 16.50119,-22.575135 z" />
    <path
       style="fill:#333333;stroke:none;stroke-width:3;stroke-linecap:round"
       id="path84"
       d="m 335.17213,74.941893 c -7.46741,6.688124 -11.4605,15.887632 -15.0101,25.034459 -0.79645,2.203708 -2.95977,7.657278 -3.17481,10.191468 -0.85393,10.06342 1.78782,0.36807 -0.46089,7.52392 0,0 1.78675,0.97397 1.78675,0.97397 v 0 c 1.67641,-6.49454 -0.72194,0.81194 3.53908,-5.81386 0.39928,-0.62087 3.95853,-9.37919 4.06645,-9.64179 4.09506,-8.659127 8.10056,-17.869196 15.2147,-24.523788 z" />
    <path
       style="fill:#333333;stroke:none;stroke-width:3;stroke-linecap:round"
       id="path85"
       d="m 271.38549,4.7642537 c -3.46123,9.7990903 -6.46525,19.8369673 -7.92811,30.1544503 -0.49468,3.488943 -0.64164,7.018407 -0.96246,10.52761 0,0 1.72788,0.932788 1.72788,0.932788 v 0 c 5.18655,-12.375549 9.98394,-24.891269 14.33895,-37.5844486 z" />
    <path
       style="fill:#008080;stroke:#1a1a1a;stroke-width:20;stroke-linecap:round;stroke-dasharray:none"
       d="m 75.968764,169.60468 c 12.367008,0 215.539286,-12.36701 226.139576,-10.60029 10.60029,1.76672 17.66716,219.07272 17.66716,219.07272 L 90.102488,455.81259 Z"
       id="path86" />
    <path
       style="fill:none;stroke:none;stroke-width:8;stroke-linecap:round;stroke-dasharray:none"
       id="path88"
       d="m 119.13314,163.91541 c 1.19489,4.97665 3.00311,9.73594 5.08007,14.4015 3.23655,5.89989 6.21746,11.93752 9.10658,18.01403 2.09863,5.29457 4.54247,10.4374 6.71951,15.69896 1.39413,4.02036 2.73878,8.07178 3.56706,12.2505 0.55548,6.0117 1.53672,11.95826 1.87779,17.99489 -0.0745,6.06992 -0.6621,12.11699 -1.04206,18.17214 -0.26739,5.21476 -1.24551,10.35154 -1.74529,15.54883 -0.77151,4.22692 -1.49573,8.47756 -2.01084,12.74492 -0.22704,4.06873 -0.38845,8.14561 -0.4363,12.22129 -0.37235,3.75863 -0.82089,7.54486 -1.60826,11.24195 -0.94772,5.35922 -1.79529,10.71615 -2.86147,16.0573 -1.2877,7.04815 -2.90472,14.02785 -3.4992,21.1784 -0.77856,6.03389 -0.40907,11.96698 1.08619,17.84158 3.30612,9.11241 6.11147,18.34166 8.62407,27.70281 1.77565,6.53913 2.98633,13.22474 3.54059,19.97695 0.16798,3.88857 0.83138,7.73468 1.28774,11.5985 0.33258,2.10384 0.25113,4.24679 0.49845,6.3561 0.94519,1.30773 0.26063,0.52994 2.41411,1.95812 0,0 4.43802,2.25623 4.43802,2.25623 v 0 c 2.07667,0.72312 1.29037,0.92748 2.39256,0.46471 0.15128,-2.1413 -0.20004,-4.29331 -0.38533,-6.42133 -0.57416,-3.91979 -1.58522,-7.78141 -1.72159,-11.75412 -0.52632,-6.84808 -1.54916,-13.61136 -3.57045,-20.20062 -2.63208,-9.31238 -5.0806,-18.69248 -8.67037,-27.70095 -1.4364,-5.75869 -2.04929,-11.55778 -1.13736,-17.47588 0.94542,-7.05571 2.15309,-14.04911 3.59352,-21.02127 1.11539,-5.29008 2.08405,-10.59927 3.10147,-15.90269 0.91136,-3.74623 1.15517,-7.64536 1.68915,-11.45782 -0.0174,-4.07492 -0.18279,-8.15562 0.23033,-12.21914 0.32781,-4.34335 1.20662,-8.5358 1.86033,-12.83323 0.43254,-5.24949 1.27138,-10.46344 1.47431,-15.72626 0.29943,-6.13155 0.89932,-12.25425 0.88344,-18.3948 -0.59518,-6.12013 -1.23034,-12.23736 -2.28998,-18.29828 -0.67177,-4.32809 -2.26925,-8.42122 -3.71665,-12.53972 -2.2837,-5.31242 -4.80332,-10.51408 -6.98944,-15.86735 -3.00729,-6.21213 -6.08541,-12.39437 -9.70189,-18.28325 -2.40661,-4.72045 -4.63782,-9.59771 -6.1157,-14.69145 z" />
    <path
       style="fill:#1a1a1a;stroke:none;stroke-width:8;stroke-linecap:round;stroke-dasharray:none"
       id="path89"
       d="m 131.60715,160.95771 c -1.92864,12.41594 -0.67804,25.13296 0.0505,37.60249 1.45974,26.72323 3.44849,53.43925 6.1353,80.06876 2.55112,21.03463 4.86734,42.09233 5.92767,63.26152 1.23935,10.02631 0.32002,20.118 0.87328,30.16227 0.50398,8.67872 1.37587,17.33286 2.67542,25.92878 0.5922,4.82031 1.86635,9.49651 3.2336,14.14304 0.70662,1.74986 1.29892,3.56082 2.06956,5.28377 0.067,0.49226 0.55058,0.61792 0.83084,0.97715 0,0 18.32172,7.85729 18.32172,7.85729 v 0 c 0.20754,0.26597 0.8526,0.68752 0.38656,0.0788 -0.84353,-1.76803 -1.74643,-3.50726 -2.48343,-5.32744 -2.13281,-4.37099 -2.81368,-9.36277 -4.00285,-14.04106 -1.55661,-8.42965 -2.61114,-16.9948 -2.69889,-25.57442 0.45445,-10.2321 -1.06014,-20.42574 -1.47393,-30.64263 -2.55803,-21.46682 -5.61723,-42.8691 -8.04073,-64.35263 -2.89053,-26.74964 -5.85991,-53.50947 -7.05206,-80.40383 -0.22896,-12.20503 -0.93433,-24.50117 0.75155,-36.63758 z" />
    <path
       style="fill:#1a1a1a;stroke:none;stroke-width:8;stroke-linecap:round;stroke-dasharray:none"
       id="path90"
       d="m 186.60109,165.21975 c 1.37117,19.42552 2.48309,38.87128 4.23539,58.27362 2.96581,34.84783 6.43467,69.64335 10.01214,104.43177 1.32707,13.77483 3.65579,27.44436 4.27123,41.28119 -0.19999,2.48577 0.38108,5.01373 0.20887,7.49453 0.0227,2.31224 0.99842,4.44432 1.34281,6.72061 0.18722,1.79059 0.42015,3.54271 0.62709,5.32231 0.1956,1.61289 -0.0547,3.24474 0.0812,4.85816 0.26773,1.38335 0.5004,2.45519 1.27124,3.67016 0.96413,2.32235 3.2084,3.43187 5.03571,4.97023 0,0 13.21562,5.96029 13.21562,5.96029 v 0 c 1.13393,-0.48189 3.09936,0.64783 1.18801,-1.90971 -0.0872,-0.41734 -0.30382,-1.56476 -0.74515,-1.84038 -0.11804,-0.0737 -0.31576,0.17945 -0.41027,0.0773 -0.12819,-0.13854 0.26932,-0.72108 0.31165,-0.79257 0.16418,-1.60823 -0.10912,-3.24029 0.0598,-4.85068 0.14783,-1.85587 0.13088,-3.68856 -0.31613,-5.51449 -0.22438,-1.33715 -0.32829,-2.68452 -0.59779,-4.0136 -0.0674,-0.33249 -0.15406,-0.6608 -0.23109,-0.99119 -0.10432,-0.1875 -0.264,-0.3536 -0.31296,-0.5625 -0.047,-0.20059 0.0243,-0.41134 0.0365,-0.617 -0.12597,-2.70588 -0.27393,-5.40716 -0.82665,-8.07448 -2.20384,-14.28178 -4.38032,-28.5628 -7.11622,-42.75572 -5.47872,-34.91415 -9.77919,-70.01118 -11.97932,-105.29904 -0.66522,-11.21389 -1.45477,-22.42059 -2.04751,-33.63854 -0.37569,-7.11028 -0.16963,-14.35778 -0.90505,-21.45112 -0.10382,-1.00141 -0.34079,-1.9845 -0.51118,-2.97676 z" />
    <path
       style="fill:#1a1a1a;stroke:none;stroke-width:8;stroke-linecap:round;stroke-dasharray:none"
       id="path91"
       d="m 242.15746,158.49818 c -0.12052,1.01512 -0.31824,2.02404 -0.36155,3.04538 -0.30841,7.27159 0.16026,14.66641 0.52924,21.92022 0.57514,11.30683 0.59577,10.75691 1.42189,22.6091 1.77196,26.97181 4.02752,53.9074 5.99789,80.86505 1.54187,17.81554 4.00775,35.53063 6.88852,53.17318 1.27557,7.58578 2.80567,15.10534 3.6028,22.76212 0.76733,3.26267 1.24431,6.54597 1.53118,9.88012 0.59603,1.7846 1.21051,3.5594 1.84535,5.3294 0.20494,1.11863 0.17285,2.25524 0.24623,3.38413 -0.0769,0.95074 0.17974,1.80808 0.48349,2.69246 0.85161,1.15431 2.1689,1.86793 3.33588,2.65624 0,0 12.32803,6.28746 12.32803,6.28746 v 0 c 1.02754,0.3546 2.23079,0.99783 3.34393,0.75342 0.39681,-0.72253 0.58429,-1.39526 0.49829,-2.24168 0.0426,-1.31519 -0.10623,-2.65523 -0.38244,-3.93802 -0.13302,-1.88335 -0.92243,-3.4128 -1.64647,-5.11902 -0.8207,-3.45278 -2.01199,-6.80846 -2.58251,-10.31965 -1.28564,-7.92591 -3.33104,-15.69551 -4.94271,-23.55751 -4.14055,-17.97497 -7.74421,-36.09521 -9.85049,-54.43443 -3.34148,-26.99429 -5.10692,-54.15096 -6.94843,-81.28253 -0.49382,-7.82195 -1.0121,-14.62373 -1.18431,-22.4147 -0.15861,-7.17563 0.39807,-14.38533 0.10658,-21.55511 -0.0465,-1.14336 -0.24103,-2.27588 -0.36155,-3.41382 z" />
    <path
       style="fill:#800080;stroke:#530053;stroke-width:24;stroke-linecap:round;stroke-dasharray:none;stroke-opacity:1"
       d="m 487.61346,0 c -17.66715,-1.7667154 17.66716,302.10834 -3.53343,374.54367 -21.20058,72.43534 107.76964,204.939 107.76964,204.939 0,0 134.27038,-49.46804 153.70425,-118.36994 19.43387,-68.90191 -8.83358,-482.313315 -8.83358,-482.313315 z"
       id="path92"
       sodipodi:nodetypes="cscscc" />
    <path
       style="fill:#4d4d4d;stroke:#333333;stroke-width:8;stroke-linecap:round;stroke-dasharray:none;stroke-opacity:1"
       d="m 392.21083,418.71156 c 0,0 -429.311854,187.27184 -434.612001,196.10542 -5.300146,8.83357 -26.500731,-139.57052 -26.500731,-139.57052 l 450.512442,-143.10395 489.38018,183.7384 -10.6003,109.53636 z"
       id="path98" />
    <path
       style="fill:#4d4d4d;stroke:#333333;stroke-width:8;stroke-linecap:round;stroke-dasharray:none;stroke-opacity:1"
       d="m 392.21083,420.47828 7.06686,56.53489 -438.14543,190.80527 -5.300146,-44.16789 -5.300147,-5.30014 z"
       id="path99" />
    <path
       style="fill:#4d4d4d;stroke:#333333;stroke-width:8;stroke-linecap:round;stroke-dasharray:none;stroke-opacity:1"
       d="m 395.74426,418.71156 464.64616,213.77257 -1.76671,58.30161 -457.5793,-213.77257 z"
       id="path100" />
    <path
       style="fill:#4d4d4d;stroke:#333333;stroke-width:8;stroke-linecap:round;stroke-dasharray:none;stroke-opacity:1"
       d="m 374.54367,491.14689 -3.53343,139.57052 37.10103,31.80088 31.80088,-24.73401 -1.76672,-139.57052 -35.33431,-17.66716 z"
       id="path101" />
    <path
       style="fill:#4d4d4d;stroke:#333333;stroke-width:8;stroke-linecap:round;stroke-dasharray:none;stroke-opacity:1"
       d="m 401.04441,482.31332 10.60029,183.7384 z"
       id="path102" />
    <path
       style="fill:#4d4d4d;stroke:#333333;stroke-width:8;stroke-linecap:round;stroke-dasharray:none;stroke-opacity:1"
       d="m 772.05465,651.918 1.76672,150.17081 44.16788,24.73402 3.53343,-151.93753 z"
       id="path103" />
    <path
       style="fill:#4d4d4d;stroke:#333333;stroke-width:8;stroke-linecap:round;stroke-dasharray:none;stroke-opacity:1"
       d="M 42.401171,632.48413 45.934602,786.18837 1.7667154,816.22254 3.5334309,650.15128 Z"
       id="path104" />
  </g>
</svg>
