<?xml version="1.0" encoding="UTF-8" standalone="no"?>
<!-- Created with Inkscape (http://www.inkscape.org/) -->

<svg
   width="512"
   height="512"
   viewBox="0 0 512 512"
   version="1.1"
   id="svg1"
   inkscape:version="1.4.4 (dcaf3e7d9e, 2026-05-05)"
   sodipodi:docname="book_half.svg"
   xmlns:inkscape="http://www.inkscape.org/namespaces/inkscape"
   xmlns:sodipodi="http://sodipodi.sourceforge.net/DTD/sodipodi-0.dtd"
   xmlns="http://www.w3.org/2000/svg"
   xmlns:svg="http://www.w3.org/2000/svg">
  <sodipodi:namedview
     id="namedview1"
     pagecolor="#ffffff"
     bordercolor="#999999"
     borderopacity="1"
     inkscape:showpageshadow="2"
     inkscape:pageopacity="0"
     inkscape:pagecheckerboard="0"
     inkscape:deskcolor="#d1d1d1"
     inkscape:document-units="px"
     inkscape:zoom="0.98411907"
     inkscape:cx="254.54237"
     inkscape:cy="257.59078"
     inkscape:window-width="1280"
     inkscape:window-height="768"
     inkscape:window-x="0"
     inkscape:window-y="0"
     inkscape:window-maximized="1"
     inkscape:current-layer="layer1" />
  <defs
     id="defs1" />
  <g
     inkscape:label="Layer 1"
     inkscape:groupmode="layer"
     id="layer1">
    <path
       style="fill:#ffe6d5;stroke:#ffb380;stroke-width:2.9996;stroke-linecap:round;stroke-linejoin:bevel;stroke-dasharray:none"
       d="m 505.64893,86.448144 c 0,0 -49.91752,-51.574714 -224.61329,-49.829001 -36.93526,0.36909 -103.82125,18.455185 -132.77141,21.223464 -27.96262,2.673848 -131.773123,0 -131.773123,0 l -0.623926,54.558133 -0.623925,54.55815 -0.623927,54.55815 -0.623925,54.55813 -0.623927,54.55815 -0.623925,54.55815 -0.623926,54.55814 -0.623926,54.55814 c 0,0 94.83673,3.69103 125.78345,0.92276 30.94671,-2.76828 111.83207,-34.08514 165.71468,-34.1421 159.80286,-0.16894 206.64421,49.829 206.64421,49.829 z"
       id="path6"
       sodipodi:nodetypes="csscccccccccsscc" />
    <path
       style="fill:#ffe6d5;stroke:#ffb380;stroke-width:2.9996;stroke-linecap:round;stroke-linejoin:bevel;stroke-dasharray:none"
       d="m 505.64893,75.353405 c 0,0 -49.91752,-51.574714 -224.61329,-49.829001 -36.93526,0.36909 -103.82125,18.455187 -132.77141,21.223464 -27.96262,2.673849 -131.773123,0 -131.773123,0 l -0.623926,54.558142 -0.623925,54.55814 -0.623927,54.55815 -0.623925,54.55814 -0.623927,54.55815 -0.623925,54.55814 -0.623926,54.55814 -0.623926,54.55815 c 0,0 94.83673,3.69103 125.78345,0.92275 30.94671,-2.76827 111.83207,-34.08513 165.71468,-34.1421 159.80286,-0.16893 206.64421,49.82901 206.64421,49.82901 z"
       id="path5"
       sodipodi:nodetypes="csscccccccccsscc" />
    <path
       style="fill:#ffe6d5;stroke:#ffb380;stroke-width:2.9996;stroke-linecap:round;stroke-linejoin:bevel;stroke-dasharray:none"
       d="m 505.64893,67.956913 c 0,0 -49.91752,-51.574714 -224.61329,-49.829001 -36.93526,0.36909 -103.82125,18.455185 -132.77141,21.223464 -27.96262,2.673848 -131.773123,0 -131.773123,0 l -0.623926,54.558141 -0.623925,54.558153 -0.623927,54.55813 -0.623925,54.55814 -0.623927,54.55815 -0.623925,54.55815 -0.623926,54.55813 -0.623926,54.55815 c 0,0 94.83673,3.69103 125.78345,0.92276 30.94671,-2.76828 111.83207,-34.08514 165.71468,-34.1421 159.80286,-0.16894 206.64421,49.829 206.64421,49.829 z"
       id="path4"
       sodipodi:nodetypes="csscccccccccsscc" />
    <path
       style="fill:#ffe6d5;stroke:#ffb380;stroke-width:2.9996;stroke-linecap:round;stroke-linejoin:bevel;stroke-dasharray:none"
       d="m 505.64893,62.409544 c 0,0 -49.91752,-51.574715 -224.61329,-49.829001 -36.93526,0.369089 -103.82125,18.455185 -132.77141,21.223463 -27.96262,2.673849 -131.773123,0 -131.773123,0 l -0.623926,54.558142 -0.623925,54.558142 -0.623927,54.55815 -0.623925,54.55813 -0.623927,54.55815 -0.623925,54.55815 -0.623926,54.55813 -0.623926,54.55815 c 0,0 94.83673,3.69103 125.78345,0.92276 30.94671,-2.76828 111.83207,-34.08514 165.71468,-34.1421 159.80286,-0.16894 206.64421,49.829 206.64421,49.829 z"
       id="path3"
       sodipodi:nodetypes="csscccccccccsscc" />
    <path
       style="fill:#ffe6d5;stroke:#ffb380;stroke-width:2.9996;stroke-linecap:round;stroke-linejoin:bevel;stroke-dasharray:none"
       d="m 505.64893,56.862174 c 0,0 -49.91752,-51.5747135 -224.61329,-49.8290007 C 244.10038,7.4022629 177.21439,25.48836 148.26423,28.256637 c -27.96262,2.673849 -131.773123,0 -131.773123,0 l -0.623926,54.558141 -0.623925,54.558142 -0.623927,54.55815 -0.623925,54.55814 -0.623927,54.55814 -0.623925,54.55815 -0.623926,54.55814 -0.623926,54.55814 c 0,0 94.83673,3.69103 125.78345,0.92276 30.94671,-2.76828 111.83207,-34.08514 165.71468,-34.1421 159.80286,-0.16894 206.64421,49.82901 206.64421,49.82901 z"
       id="path2"
       sodipodi:nodetypes="csscccccccccsscc" />
    <path
       style="fill:#ffe6d5;stroke:#ffb380;stroke-width:2.9996;stroke-linecap:round;stroke-linejoin:bevel;stroke-dasharray:none"
       d="m 512,51.314805 c 0,0 -56.26859,-51.57471351 -230.96436,-49.8290008 C 244.10038,1.8548936 177.21439,19.94099 148.26423,22.709268 c -27.96262,2.673848 -131.773123,0 -131.773123,0 l -0.623926,54.558143 -0.623925,54.558139 -0.623927,54.55815 -0.623925,54.55814 -0.623927,54.55814 -0.623925,54.55815 -0.623926,54.55814 -0.623926,54.55815 c 0,0 94.83673,3.69103 125.78345,0.92275 30.94671,-2.76827 111.83207,-34.08513 165.71468,-34.1421 C 462.80069,425.78614 512,475.78408 512,475.78408 Z"
       id="path1"
       sodipodi:nodetypes="csscccccccccsscc" />
  </g>
</svg>
