<?xml version="1.0" encoding="UTF-8" standalone="no"?>
<!-- Created with Inkscape (http://www.inkscape.org/) -->

<svg
   width="128"
   height="128"
   viewBox="0 0 128 128"
   version="1.1"
   id="svg1"
   inkscape:version="1.4.4 (dcaf3e7d9e, 2026-05-05)"
   sodipodi:docname="cauldron.svg"
   xmlns:inkscape="http://www.inkscape.org/namespaces/inkscape"
   xmlns:sodipodi="http://sodipodi.sourceforge.net/DTD/sodipodi-0.dtd"
   xmlns="http://www.w3.org/2000/svg"
   xmlns:svg="http://www.w3.org/2000/svg">
  <sodipodi:namedview
     id="namedview1"
     pagecolor="#ffffff"
     bordercolor="#999999"
     borderopacity="1"
     inkscape:showpageshadow="2"
     inkscape:pageopacity="0"
     inkscape:pagecheckerboard="0"
     inkscape:deskcolor="#d1d1d1"
     inkscape:document-units="px"
     inkscape:zoom="3.2906364"
     inkscape:cx="70.958919"
     inkscape:cy="68.527778"
     inkscape:window-width="1280"
     inkscape:window-height="768"
     inkscape:window-x="0"
     inkscape:window-y="0"
     inkscape:window-maximized="1"
     inkscape:current-layer="layer1" />
  <defs
     id="defs1" />
  <g
     inkscape:label="Layer 1"
     inkscape:groupmode="layer"
     id="layer1">
    <path
       style="fill:#4d4d4d;stroke:#333333;stroke-width:3;stroke-linecap:round;stroke-linejoin:bevel;stroke-dasharray:none"
       d="m 37.042329,40.55981 c 0,0 -22.028467,16.607583 -21.268865,32.537307 0.759604,15.929722 9.874832,37.621263 41.398327,36.943393 31.523497,-0.67785 46.715539,-13.896134 47.095339,-37.621253 0.3798,-23.72512 -22.408264,-33.554098 -22.408264,-33.554098 z"
       id="path1" />
    <path
       style="fill:#4d4d4d;stroke:#333333;stroke-width:3;stroke-linecap:round;stroke-linejoin:bevel;stroke-dasharray:none"
       d="M 22.951236,40.974335 C 23.190937,45.152036 35.895108,54.606837 58.427035,53.287563 80.958964,51.968287 97.258656,46.251432 96.779254,40.974335 96.299851,35.697237 75.685532,30.420138 58.427035,30.859898 41.168537,31.299657 22.711534,36.796633 22.951236,40.974335 Z"
       id="path2"
       sodipodi:nodetypes="zsssz" />
    <path
       style="fill:#008080;stroke:#333333;stroke-width:3;stroke-linecap:round;stroke-linejoin:bevel;stroke-dasharray:none"
       d="m 30.111397,41.411394 c -0.267843,2.782733 15.142302,5.819816 25.8681,5.819816 10.725798,0 30.284605,0 30.284605,-5.372138 0,-5.372139 -15.773229,-4.924462 -29.653675,-5.819817 -13.880444,-0.895357 -26.231189,2.589407 -26.49903,5.372139 z"
       id="path3"
       sodipodi:nodetypes="zsssz" />
    <path
       style="fill:#ffcc00;stroke:#333333;stroke-width:3;stroke-linecap:round;stroke-linejoin:bevel;stroke-dasharray:none"
       d="m 30.085366,99.98066 c 0,0 -13.371274,-6.685637 -15.802415,0.91168 -2.43114,7.59731 1.823356,11.85181 7.901208,10.94013 6.077851,-0.91168 7.901207,-11.85181 7.901207,-11.85181 z"
       id="path4" />
    <path
       style="fill:#ffcc00;stroke:#333333;stroke-width:3;stroke-linecap:round;stroke-linejoin:bevel;stroke-dasharray:none"
       d="m 87.419722,100.58844 c 0,0 13.371278,-6.685632 15.802418,0.91168 2.43114,7.59731 -1.82336,11.85181 -7.901211,10.94013 -6.077851,-0.91168 -7.901207,-11.85181 -7.901207,-11.85181 z"
       id="path5" />
  </g>
</svg>
