<?xml version="1.0" encoding="UTF-8" standalone="no"?>
<!-- Created with Inkscape (http://www.inkscape.org/) -->

<svg
   width="128"
   height="128"
   viewBox="0 0 128 128"
   version="1.1"
   id="svg1"
   inkscape:version="1.4.4 (dcaf3e7d9e, 2026-05-05)"
   sodipodi:docname="nightshade_powder.svg"
   xmlns:inkscape="http://www.inkscape.org/namespaces/inkscape"
   xmlns:sodipodi="http://sodipodi.sourceforge.net/DTD/sodipodi-0.dtd"
   xmlns="http://www.w3.org/2000/svg"
   xmlns:svg="http://www.w3.org/2000/svg">
  <sodipodi:namedview
     id="namedview1"
     pagecolor="#ffffff"
     bordercolor="#999999"
     borderopacity="1"
     inkscape:showpageshadow="2"
     inkscape:pageopacity="0"
     inkscape:pagecheckerboard="0"
     inkscape:deskcolor="#d1d1d1"
     inkscape:document-units="px"
     inkscape:zoom="2.9103734"
     inkscape:cx="50.680782"
     inkscape:cy="79.199459"
     inkscape:window-width="1280"
     inkscape:window-height="768"
     inkscape:window-x="0"
     inkscape:window-y="0"
     inkscape:window-maximized="1"
     inkscape:current-layer="layer1" />
  <defs
     id="defs1" />
  <g
     inkscape:label="Layer 1"
     inkscape:groupmode="layer"
     id="layer1">
    <path
       style="fill:#606c00;stroke:#360000;stroke-width:3;stroke-linecap:round;stroke-linejoin:miter;fill-opacity:1;stroke-opacity:1"
       d="m 20.95951,104.11035 c 0,0 22.677502,8.58996 41.57542,8.93356 18.897919,0.3436 42.94982,-6.52837 43.63701,-10.99515 0.6872,-4.466781 2.40519,-21.990305 -5.84117,-23.021101 -8.246367,-1.030795 -17.523527,0.343599 -17.523527,0.343599 0,0 7.559168,-12.369547 -1.717992,-17.867123 -9.27716,-5.497576 -28.175079,-13.400342 -33.672655,-2.061591 -5.497577,11.338751 -4.466781,15.461933 -4.466781,15.461933 0,0 -4.810379,-7.559167 -9.964357,-3.779584 C 27.83148,74.904477 20.95951,104.11035 20.95951,104.11035 Z"
       id="path12" />
    <path
       style="fill:#606c00;fill-opacity:1;stroke:#360000;stroke-width:3;stroke-linecap:round;stroke-linejoin:miter;stroke-opacity:1"
       d="m 82.807243,79.027659 c 0,0 -24.395495,4.123183 -24.395495,12.713146"
       id="path13" />
    <path
       style="fill:#606c00;fill-opacity:1;stroke:#360000;stroke-width:3;stroke-linecap:round;stroke-linejoin:miter;stroke-opacity:1"
       d="m 42.606216,74.21728 c -2.748788,8.933562 -3.779583,14.087539 -3.779583,14.087539"
       id="path14" />
  </g>
</svg>
